G04*
G04 #@! TF.GenerationSoftware,Altium Limited,Altium Designer,19.0.10 (269)*
G04*
G04 Layer_Color=65535*
%FSLAX25Y25*%
%MOIN*%
G70*
G01*
G75*
%ADD10C,0.01000*%
%ADD11C,0.01575*%
%ADD12C,0.01181*%
%ADD13C,0.00799*%
%ADD14C,0.00800*%
%ADD15C,0.01200*%
%ADD16C,0.00787*%
%ADD17C,0.00984*%
%ADD18C,0.00394*%
%ADD19C,0.00500*%
G36*
X78354Y6282D02*
X81854D01*
X82354D01*
X80354Y10782D01*
X78354Y6282D01*
D02*
G37*
G36*
X118629Y45829D02*
X118146Y46261D01*
X117039Y46937D01*
X115828Y47400D01*
X114553Y47636D01*
X113256Y47636D01*
X111981Y47401D01*
X110770Y46937D01*
X109663Y46261D01*
X109180Y45829D01*
X109180Y45829D01*
X118629Y45829D01*
D02*
G37*
G36*
X155898Y46344D02*
X155416Y46777D01*
X154309Y47453D01*
X153098Y47916D01*
X151823Y48151D01*
X150526Y48151D01*
X149251Y47916D01*
X148040Y47453D01*
X146933Y46777D01*
X146450Y46344D01*
X146450Y46344D01*
X155898Y46344D01*
D02*
G37*
D10*
X208626Y19685D02*
G03*
X208626Y19685I-11811J0D01*
G01*
X31496D02*
G03*
X31496Y19685I-11811J0D01*
G01*
Y157315D02*
G03*
X31496Y157315I-11811J0D01*
G01*
X208626D02*
G03*
X208626Y157315I-11811J0D01*
G01*
X80100Y85340D02*
G03*
X84400Y85343I2150J1D01*
G01*
X47799Y53500D02*
G03*
X48232Y49839I312J-1819D01*
G01*
X47259Y53318D02*
G03*
X47051Y56925I-161J1800D01*
G01*
X106035Y39524D02*
G03*
X106035Y39654I7874J65D01*
G01*
X143304Y40040D02*
G03*
X143304Y40170I7874J65D01*
G01*
X147126Y91032D02*
X153425D01*
X147126D02*
Y94969D01*
X153425D01*
Y91032D02*
Y94969D01*
X109878Y5476D02*
X157122D01*
X109878Y27524D02*
X157122Y27524D01*
X118500Y24500D02*
X147500D01*
X139500Y10500D02*
Y22500D01*
X118500Y8500D02*
X147500D01*
X157122Y5476D02*
Y10750D01*
Y22250D02*
Y27524D01*
X147500Y20377D02*
Y24500D01*
Y8500D02*
Y12623D01*
X118500Y8500D02*
Y13396D01*
Y19604D02*
Y24500D01*
X133500Y20953D02*
Y22500D01*
Y10500D02*
Y12047D01*
X135637Y10500D02*
Y12595D01*
Y20406D02*
Y22500D01*
X137537Y18366D02*
Y22500D01*
Y10500D02*
Y14634D01*
X141537Y18856D02*
Y22500D01*
Y10500D02*
Y14144D01*
X143537Y10500D02*
Y12416D01*
Y20584D02*
Y22500D01*
X145500Y20949D02*
Y22500D01*
Y10500D02*
Y12051D01*
X133500Y10500D02*
X145500D01*
X133500Y22500D02*
X145500D01*
X109878Y5476D02*
Y10750D01*
Y22250D02*
Y27524D01*
X107016Y95079D02*
Y100000D01*
X98984Y95079D02*
Y100000D01*
X107016Y86220D02*
Y91142D01*
X98984Y86220D02*
Y91142D01*
Y100000D02*
X107016D01*
X98984Y86220D02*
X107016D01*
X112547Y74016D02*
X117468D01*
X112547Y65984D02*
X117468D01*
X121405Y74016D02*
X126327D01*
X121405Y65984D02*
X126327D01*
X112547Y74016D02*
X112547Y65984D01*
X126327D02*
Y74016D01*
X112547Y63016D02*
X117468D01*
X112547Y54984D02*
X117468D01*
X121405Y63016D02*
X126327D01*
X121405Y54984D02*
X126327D01*
X112547D02*
Y63016D01*
X126327Y54984D02*
Y63016D01*
X74323Y65658D02*
X89677D01*
X74323D02*
Y85343D01*
X89677Y65658D02*
Y85343D01*
X84400D02*
X89677D01*
X74323D02*
X80100D01*
X50906Y73984D02*
X55827D01*
X50906Y82016D02*
X55827D01*
X42047Y73984D02*
X46969D01*
X42047Y82016D02*
X46969D01*
X55827D02*
X55827Y73984D01*
X42047D02*
Y82016D01*
X57642Y49563D02*
Y57437D01*
X37957Y49563D02*
Y57437D01*
X51736Y48776D02*
X56461D01*
X51736Y58224D02*
X56461D01*
X39138Y48776D02*
X43862D01*
X39138Y58224D02*
X43862D01*
X8897Y73085D02*
X18747Y71125D01*
Y66005D02*
Y71125D01*
X8897Y64035D02*
X18747Y66005D01*
X8897Y64035D02*
Y65985D01*
X17167Y67555D01*
Y69635D01*
X8897Y71215D02*
X17167Y69635D01*
X8897Y71215D02*
Y73085D01*
X14017Y70335D02*
Y71905D01*
X14018Y65215D02*
Y66790D01*
X14038Y52314D02*
Y53889D01*
X14037Y57435D02*
Y59005D01*
X8917Y60185D02*
X18767Y58225D01*
Y53105D02*
Y58225D01*
X8917Y51135D02*
X18767Y53105D01*
X8917Y51135D02*
Y53085D01*
X17187Y54655D01*
Y56735D01*
X8917Y58315D02*
X17187Y56735D01*
X8917Y58315D02*
Y60185D01*
X54839Y4664D02*
Y10764D01*
Y4664D02*
X62839D01*
Y10764D01*
X54739Y13864D02*
Y19664D01*
X56339Y21264D01*
X61339D01*
X62839Y19764D01*
Y13764D02*
Y19764D01*
X56875Y11722D02*
X60813D01*
X58844Y12115D02*
Y13174D01*
X43306Y4664D02*
Y10764D01*
Y4664D02*
X51306D01*
Y10764D01*
X43206Y13864D02*
Y19664D01*
X44806Y21264D01*
X49806D01*
X51306Y19764D01*
Y13764D02*
Y19764D01*
X45341Y11722D02*
X49279D01*
X47311Y12115D02*
Y13174D01*
X43395Y24047D02*
Y28969D01*
X51426Y24047D02*
Y28969D01*
X43395Y32906D02*
Y37827D01*
X51426Y32906D02*
Y37827D01*
X43395Y24047D02*
X51426D01*
X43395Y37827D02*
X51426D01*
X54484Y24047D02*
Y28969D01*
X62516Y24047D02*
Y28969D01*
X54484Y32906D02*
Y37827D01*
X62516Y32906D02*
Y37827D01*
X54484Y24047D02*
X62516D01*
X54484Y37827D02*
X62516D01*
X99618Y20249D02*
Y36071D01*
X70091Y20249D02*
Y36071D01*
X76582D01*
X83127D02*
X86582D01*
X93127D02*
X99618D01*
X71679Y5362D02*
X98030D01*
X181166Y20610D02*
Y26710D01*
X173166D02*
X181166D01*
X173166Y20610D02*
Y26710D01*
X181266Y11710D02*
Y17510D01*
X179666Y10110D02*
X181266Y11710D01*
X174666Y10110D02*
X179666D01*
X173166Y11610D02*
X174666Y10110D01*
X173166Y11610D02*
Y17610D01*
X175193Y19652D02*
X179131D01*
X177161Y18200D02*
Y19259D01*
X171061Y20500D02*
Y26600D01*
X163061D02*
X171061D01*
X163061Y20500D02*
Y26600D01*
X171161Y11600D02*
Y17400D01*
X169561Y10000D02*
X171161Y11600D01*
X164561Y10000D02*
X169561D01*
X163061Y11500D02*
X164561Y10000D01*
X163061Y11500D02*
Y17500D01*
X165088Y19542D02*
X169026D01*
X167056Y18090D02*
Y19149D01*
X137822Y35841D02*
Y39050D01*
X135224Y35841D02*
X137822D01*
X126326D02*
X128924D01*
X126326D02*
X128924D01*
X126326D02*
X128924D01*
X126326D02*
Y39050D01*
X109180Y35442D02*
Y38742D01*
X107580Y37142D02*
X110680D01*
X146450Y35958D02*
Y39258D01*
X144850Y37658D02*
X147950D01*
X184894Y43532D02*
Y48453D01*
X176862Y43532D02*
Y48453D01*
X184894Y34673D02*
Y39595D01*
X176862Y34673D02*
Y39595D01*
Y48453D02*
X184894Y48453D01*
X176862Y34673D02*
X184894D01*
X170744Y100339D02*
X176256D01*
X170744Y126520D02*
X176256D01*
Y100339D02*
X179799D01*
Y126520D01*
X176256D02*
X179799D01*
X167201D02*
X170744D01*
X167201Y100339D02*
Y126520D01*
Y100339D02*
X170744D01*
X184862Y106849D02*
Y111770D01*
X192894Y106849D02*
Y111770D01*
X184862Y115707D02*
Y120629D01*
X192894Y115707D02*
Y120629D01*
X184862Y106849D02*
X192894Y106849D01*
X184862Y120629D02*
X192894D01*
X151484Y134173D02*
Y139095D01*
X159516Y134173D02*
Y139095D01*
X151484Y143032D02*
Y147953D01*
X159516Y143032D02*
Y147953D01*
X151484Y134173D02*
X159516D01*
X151484Y147953D02*
X159516D01*
X38500Y134000D02*
Y137999D01*
X40499D01*
X41166Y137332D01*
Y135999D01*
X40499Y135333D01*
X38500D01*
X42499Y134000D02*
Y137999D01*
X44498D01*
X45164Y137332D01*
Y135999D01*
X44498Y135333D01*
X42499D01*
X43832D02*
X45164Y134000D01*
X48497Y137999D02*
X47164D01*
X46497Y137332D01*
Y134667D01*
X47164Y134000D01*
X48497D01*
X49163Y134667D01*
Y137332D01*
X48497Y137999D01*
X53162D02*
X51829D01*
X52495D01*
Y134667D01*
X51829Y134000D01*
X51163D01*
X50496Y134667D01*
X57161Y137999D02*
X54495D01*
Y134000D01*
X57161D01*
X54495Y135999D02*
X55828D01*
X61159Y137332D02*
X60493Y137999D01*
X59160D01*
X58494Y137332D01*
Y134667D01*
X59160Y134000D01*
X60493D01*
X61159Y134667D01*
X62492Y137999D02*
X65158D01*
X63825D01*
Y134000D01*
X70490D02*
Y136666D01*
X71823Y137999D01*
X73155Y136666D01*
Y134000D01*
Y135999D01*
X70490D01*
X74488Y137999D02*
X75821D01*
X75155D01*
Y134000D01*
X74488D01*
X75821D01*
X77821D02*
Y137999D01*
X79820D01*
X80487Y137332D01*
Y135999D01*
X79820Y135333D01*
X77821D01*
X79154D02*
X80487Y134000D01*
X30000Y129999D02*
Y126000D01*
X31999D01*
X32666Y126666D01*
Y129332D01*
X31999Y129999D01*
X30000D01*
X36665D02*
X33999D01*
Y126000D01*
X36665D01*
X33999Y127999D02*
X35332D01*
X40663Y129332D02*
X39997Y129999D01*
X38664D01*
X37997Y129332D01*
Y128666D01*
X38664Y127999D01*
X39997D01*
X40663Y127333D01*
Y126666D01*
X39997Y126000D01*
X38664D01*
X37997Y126666D01*
X41996Y129999D02*
X43329D01*
X42663D01*
Y126000D01*
X41996D01*
X43329D01*
X47994Y129332D02*
X47328Y129999D01*
X45995D01*
X45328Y129332D01*
Y126666D01*
X45995Y126000D01*
X47328D01*
X47994Y126666D01*
Y127999D01*
X46661D01*
X49327Y126000D02*
Y129999D01*
X51993Y126000D01*
Y129999D01*
X55992D02*
X53326D01*
Y126000D01*
X55992D01*
X53326Y127999D02*
X54659D01*
X57324Y129999D02*
Y126000D01*
X59324D01*
X59990Y126666D01*
Y129332D01*
X59324Y129999D01*
X57324D01*
X65322D02*
Y126000D01*
X67321D01*
X67988Y126666D01*
Y127333D01*
X67321Y127999D01*
X65322D01*
X67321D01*
X67988Y128666D01*
Y129332D01*
X67321Y129999D01*
X65322D01*
X69321D02*
Y129332D01*
X70653Y127999D01*
X71987Y129332D01*
Y129999D01*
X70653Y127999D02*
Y126000D01*
X79984Y129332D02*
X79317Y129999D01*
X77984D01*
X77318Y129332D01*
Y126666D01*
X77984Y126000D01*
X79317D01*
X79984Y126666D01*
X81317Y129999D02*
Y129332D01*
X82650Y127999D01*
X83983Y129332D01*
Y129999D01*
X82650Y127999D02*
Y126000D01*
X85316Y129999D02*
X87981D01*
X86648D01*
Y126000D01*
X0Y0D02*
Y177165D01*
Y0D02*
X216535D01*
Y177165D01*
X0D02*
X216535D01*
D11*
X132899Y103155D02*
G03*
X132906Y103162I560J-553D01*
G01*
D12*
X72400Y86100D02*
G03*
X72400Y86090I-591J-5D01*
G01*
D13*
X7000Y114500D02*
Y137000D01*
X95000Y169500D02*
X127500D01*
D14*
X7000Y137000D02*
X17000D01*
Y107000D02*
Y137000D01*
X7000Y107000D02*
X17000D01*
X7000D02*
Y114500D01*
X127500Y159500D02*
Y169500D01*
X87500Y159500D02*
X127500D01*
X87500D02*
Y169500D01*
X95000D01*
D15*
X98500Y129222D02*
X107500D01*
X98500Y110222D02*
X107500D01*
X98500Y121722D02*
Y129222D01*
X107500Y121722D02*
Y129222D01*
Y110222D02*
Y117722D01*
X98500Y110222D02*
Y117722D01*
X111500Y99500D02*
X120500D01*
X111500Y80500D02*
X120500D01*
X111500Y92000D02*
Y99500D01*
X120500Y92000D02*
Y99500D01*
Y80500D02*
Y88000D01*
X111500Y80500D02*
Y88000D01*
X75500Y49369D02*
Y58369D01*
X94500Y49369D02*
Y58369D01*
X75500Y49369D02*
X83000D01*
X75500Y58369D02*
X83000D01*
X87000D02*
X94500D01*
X87000Y49369D02*
X94500D01*
X57500Y61500D02*
Y70500D01*
X38500Y61500D02*
Y70500D01*
X50000D02*
X57500D01*
X50000Y61500D02*
X57500D01*
X38500D02*
X46000D01*
X38500Y70500D02*
X46000D01*
X139545Y87000D02*
X148545D01*
X139545Y68000D02*
X148545D01*
X139545Y79500D02*
Y87000D01*
X148545Y79500D02*
Y87000D01*
Y68000D02*
Y75500D01*
X139545Y68000D02*
Y75500D01*
X152545Y87000D02*
X161545D01*
X152545Y68000D02*
X161545D01*
X152545Y79500D02*
Y87000D01*
X161545Y79500D02*
Y87000D01*
Y68000D02*
Y75500D01*
X152545Y68000D02*
Y75500D01*
X173372Y56500D02*
X182372D01*
X173372Y75500D02*
X182372D01*
Y56500D02*
Y64000D01*
X173372Y56500D02*
Y64000D01*
Y68000D02*
Y75500D01*
X182372Y68000D02*
Y75500D01*
X187378Y56500D02*
X196378D01*
X187378Y75500D02*
X196378D01*
Y56500D02*
Y64000D01*
X187378Y56500D02*
Y64000D01*
Y68000D02*
Y75500D01*
X196378Y68000D02*
Y75500D01*
X168500Y86500D02*
Y95500D01*
X187500Y86500D02*
Y95500D01*
X168500Y86500D02*
X176000D01*
X168500Y95500D02*
X176000D01*
X180000D02*
X187500D01*
X180000Y86500D02*
X187500D01*
X168500Y132000D02*
Y141000D01*
X187500Y132000D02*
Y141000D01*
X168500Y132000D02*
X176000D01*
X168500Y141000D02*
X176000D01*
X180000D02*
X187500D01*
X180000Y132000D02*
X187500D01*
X130351Y145500D02*
Y154500D01*
X149352Y145500D02*
Y154500D01*
X130351Y145500D02*
X137852D01*
X130351Y154500D02*
X137852D01*
X141851D02*
X149352D01*
X141851Y145500D02*
X149352D01*
D16*
X114938Y117297D02*
X117060Y119419D01*
X114938Y117297D02*
X133465Y98771D01*
X151920Y117227D01*
X133394Y135753D02*
X151920Y117227D01*
X116141Y118500D02*
X133394Y135753D01*
X130893Y41943D02*
X133255D01*
D17*
X4303Y44276D02*
X4303Y79709D01*
X25563Y63567D02*
X26350D01*
X23988Y58055D02*
X25563D01*
Y60417D01*
X26350D01*
X23988Y65929D02*
X25563D01*
Y63567D02*
Y65929D01*
X23988Y58016D02*
Y65969D01*
X32059Y75471D02*
Y75477D01*
Y48507D02*
Y48514D01*
X4303Y44276D02*
X9376D01*
X19703D02*
X24337D01*
X4303Y79709D02*
X9376D01*
X19703D02*
X24337D01*
D18*
X173500Y109729D02*
Y111129D01*
X169600Y111529D02*
X177868D01*
X169994Y112710D02*
Y114285D01*
X177474D01*
Y112710D02*
Y114285D01*
X169994Y112710D02*
X177474D01*
X169600Y115466D02*
X177868D01*
X173537Y115860D02*
Y117041D01*
D19*
X79500Y21999D02*
Y19000D01*
X80999D01*
X81499Y19500D01*
Y20000D01*
X80999Y20500D01*
X79500D01*
X80999D01*
X81499Y20999D01*
Y21499D01*
X80999Y21999D01*
X79500D01*
X82499Y19000D02*
Y20999D01*
X83499Y21999D01*
X84498Y20999D01*
Y19000D01*
Y20500D01*
X82499D01*
X85498Y21999D02*
X87497D01*
X86498D01*
Y19000D01*
X90496D02*
X88497D01*
X90496Y20999D01*
Y21499D01*
X89997Y21999D01*
X88997D01*
X88497Y21499D01*
X207500Y171499D02*
Y168500D01*
Y170000D01*
X209499D01*
Y171499D01*
Y168500D01*
X211999D02*
Y171499D01*
X210499Y170000D01*
X212498D01*
X5000Y172499D02*
Y169500D01*
Y171000D01*
X6999D01*
Y172499D01*
Y169500D01*
X7999Y171999D02*
X8499Y172499D01*
X9499D01*
X9998Y171999D01*
Y171499D01*
X9499Y171000D01*
X8999D01*
X9499D01*
X9998Y170500D01*
Y170000D01*
X9499Y169500D01*
X8499D01*
X7999Y170000D01*
X207000Y8475D02*
Y5476D01*
Y6976D01*
X208999D01*
Y8475D01*
Y5476D01*
X211998D02*
X209999D01*
X211998Y7476D01*
Y7976D01*
X211498Y8475D01*
X210499D01*
X209999Y7976D01*
X5000Y8499D02*
Y5500D01*
Y7000D01*
X6999D01*
Y8499D01*
Y5500D01*
X7999D02*
X8999D01*
X8499D01*
Y8499D01*
X7999Y7999D01*
X163500Y4999D02*
Y2000D01*
X164999D01*
X165499Y2500D01*
Y4499D01*
X164999Y4999D01*
X163500D01*
X168498Y4499D02*
X167999Y4999D01*
X166999D01*
X166499Y4499D01*
Y3999D01*
X166999Y3500D01*
X167999D01*
X168498Y3000D01*
Y2500D01*
X167999Y2000D01*
X166999D01*
X166499Y2500D01*
X170998Y2000D02*
Y4999D01*
X169498Y3500D01*
X171497D01*
X147652Y99499D02*
Y98999D01*
X148652Y98000D01*
X149651Y98999D01*
Y99499D01*
X148652Y98000D02*
Y96500D01*
X152650D02*
X150651D01*
X152650Y98499D01*
Y98999D01*
X152150Y99499D01*
X151151D01*
X150651Y98999D01*
X162001Y111129D02*
X162501D01*
X163500Y112129D01*
X162501Y113128D01*
X162001D01*
X163500Y112129D02*
X165000D01*
Y114128D02*
Y115128D01*
Y114628D01*
X162001D01*
X162501Y114128D01*
X17200Y86999D02*
Y84500D01*
X17700Y84000D01*
X18699D01*
X19199Y84500D01*
Y86999D01*
X21699Y84000D02*
Y86999D01*
X20199Y85500D01*
X22198D01*
X75000Y91499D02*
Y89000D01*
X75500Y88500D01*
X76499D01*
X76999Y89000D01*
Y91499D01*
X77999Y90999D02*
X78499Y91499D01*
X79499D01*
X79998Y90999D01*
Y90499D01*
X79499Y90000D01*
X78999D01*
X79499D01*
X79998Y89500D01*
Y89000D01*
X79499Y88500D01*
X78499D01*
X77999Y89000D01*
X114938Y140499D02*
Y138000D01*
X115438Y137500D01*
X116438D01*
X116938Y138000D01*
Y140499D01*
X119937Y137500D02*
X117937D01*
X119937Y139499D01*
Y139999D01*
X119437Y140499D01*
X118437D01*
X117937Y139999D01*
X130000Y50999D02*
Y48500D01*
X130500Y48000D01*
X131500D01*
X131999Y48500D01*
Y50999D01*
X132999Y48000D02*
X133999D01*
X133499D01*
Y50999D01*
X132999Y50499D01*
X60500Y51681D02*
Y54680D01*
X61999D01*
X62499Y54180D01*
Y53180D01*
X61999Y52680D01*
X60500D01*
X61500D02*
X62499Y51681D01*
X63499D02*
X64499D01*
X63999D01*
Y54680D01*
X63499Y54180D01*
X65998Y51681D02*
X66998D01*
X66498D01*
Y54680D01*
X65998Y54180D01*
X67000Y27000D02*
X64001D01*
Y28499D01*
X64501Y28999D01*
X65500D01*
X66000Y28499D01*
Y27000D01*
Y28000D02*
X67000Y28999D01*
Y29999D02*
Y30999D01*
Y30499D01*
X64001D01*
X64501Y29999D01*
Y32498D02*
X64001Y32998D01*
Y33998D01*
X64501Y34498D01*
X66500D01*
X67000Y33998D01*
Y32998D01*
X66500Y32498D01*
X64501D01*
X40500Y27000D02*
X37501D01*
Y28499D01*
X38001Y28999D01*
X39000D01*
X39500Y28499D01*
Y27000D01*
Y28000D02*
X40500Y28999D01*
X40000Y29999D02*
X40500Y30499D01*
Y31499D01*
X40000Y31998D01*
X38001D01*
X37501Y31499D01*
Y30499D01*
X38001Y29999D01*
X38501D01*
X39000Y30499D01*
Y31998D01*
X57500Y76500D02*
Y79499D01*
X59000D01*
X59499Y78999D01*
Y78000D01*
X59000Y77500D01*
X57500D01*
X58500D02*
X59499Y76500D01*
X60499Y78999D02*
X60999Y79499D01*
X61999D01*
X62498Y78999D01*
Y78499D01*
X61999Y78000D01*
X62498Y77500D01*
Y77000D01*
X61999Y76500D01*
X60999D01*
X60499Y77000D01*
Y77500D01*
X60999Y78000D01*
X60499Y78499D01*
Y78999D01*
X60999Y78000D02*
X61999D01*
X186500Y122500D02*
Y125499D01*
X187999D01*
X188499Y124999D01*
Y124000D01*
X187999Y123500D01*
X186500D01*
X187500D02*
X188499Y122500D01*
X191498Y125499D02*
X190499Y124999D01*
X189499Y124000D01*
Y123000D01*
X189999Y122500D01*
X190999D01*
X191498Y123000D01*
Y123500D01*
X190999Y124000D01*
X189499D01*
X164563Y139500D02*
X161564D01*
Y140999D01*
X162064Y141499D01*
X163064D01*
X163563Y140999D01*
Y139500D01*
Y140500D02*
X164563Y141499D01*
X161564Y144498D02*
Y142499D01*
X163064D01*
X162564Y143499D01*
Y143999D01*
X163064Y144498D01*
X164063D01*
X164563Y143999D01*
Y142999D01*
X164063Y142499D01*
X99618Y101500D02*
Y104499D01*
X101118D01*
X101618Y103999D01*
Y102999D01*
X101118Y102500D01*
X99618D01*
X100618D02*
X101618Y101500D01*
X104117D02*
Y104499D01*
X102617Y102999D01*
X104617D01*
X190000Y43532D02*
X187001D01*
Y45031D01*
X187501Y45531D01*
X188500D01*
X189000Y45031D01*
Y43532D01*
Y44531D02*
X190000Y45531D01*
X187501Y46531D02*
X187001Y47030D01*
Y48030D01*
X187501Y48530D01*
X188001D01*
X188500Y48030D01*
Y47530D01*
Y48030D01*
X189000Y48530D01*
X189500D01*
X190000Y48030D01*
Y47030D01*
X189500Y46531D01*
X105500Y56925D02*
Y59924D01*
X107000D01*
X107499Y59424D01*
Y58425D01*
X107000Y57925D01*
X105500D01*
X106500D02*
X107499Y56925D01*
X110498D02*
X108499D01*
X110498Y58925D01*
Y59424D01*
X109999Y59924D01*
X108999D01*
X108499Y59424D01*
X105500Y69000D02*
Y71999D01*
X107000D01*
X107499Y71499D01*
Y70499D01*
X107000Y70000D01*
X105500D01*
X106500D02*
X107499Y69000D01*
X108499D02*
X109499D01*
X108999D01*
Y71999D01*
X108499Y71499D01*
X107016Y4499D02*
Y1500D01*
Y2500D01*
X109015Y4499D01*
X107516Y2999D01*
X109015Y1500D01*
X110015D02*
X111014D01*
X110514D01*
Y4499D01*
X110015Y3999D01*
X90499Y174499D02*
X89500D01*
X90000D01*
Y172000D01*
X89500Y171500D01*
X89000D01*
X88500Y172000D01*
X91499Y173999D02*
X91999Y174499D01*
X92999D01*
X93498Y173999D01*
Y173499D01*
X92999Y173000D01*
X92499D01*
X92999D01*
X93498Y172500D01*
Y172000D01*
X92999Y171500D01*
X91999D01*
X91499Y172000D01*
X9999Y141999D02*
X9000D01*
X9499D01*
Y139500D01*
X9000Y139000D01*
X8500D01*
X8000Y139500D01*
X10999Y139000D02*
X11999D01*
X11499D01*
Y141999D01*
X10999Y141499D01*
X64000Y3999D02*
Y2000D01*
X65000D01*
X65333Y2333D01*
Y3666D01*
X65000Y3999D01*
X64000D01*
X67332Y3666D02*
X66999Y3999D01*
X66333D01*
X65999Y3666D01*
Y3333D01*
X66333Y3000D01*
X66999D01*
X67332Y2667D01*
Y2333D01*
X66999Y2000D01*
X66333D01*
X65999Y2333D01*
X67999Y3666D02*
X68332Y3999D01*
X68998D01*
X69332Y3666D01*
Y3333D01*
X68998Y3000D01*
X68665D01*
X68998D01*
X69332Y2667D01*
Y2333D01*
X68998Y2000D01*
X68332D01*
X67999Y2333D01*
X37501Y11000D02*
X40500D01*
Y12500D01*
X40000Y12999D01*
X38001D01*
X37501Y12500D01*
Y11000D01*
X38001Y15998D02*
X37501Y15499D01*
Y14499D01*
X38001Y13999D01*
X38501D01*
X39000Y14499D01*
Y15499D01*
X39500Y15998D01*
X40000D01*
X40500Y15499D01*
Y14499D01*
X40000Y13999D01*
X40500Y18997D02*
Y16998D01*
X38501Y18997D01*
X38001D01*
X37501Y18498D01*
Y17498D01*
X38001Y16998D01*
X174000Y4999D02*
Y2000D01*
X175499D01*
X175999Y2500D01*
Y4499D01*
X175499Y4999D01*
X174000D01*
X178998Y4499D02*
X178499Y4999D01*
X177499D01*
X176999Y4499D01*
Y3999D01*
X177499Y3500D01*
X178499D01*
X178998Y3000D01*
Y2500D01*
X178499Y2000D01*
X177499D01*
X176999Y2500D01*
X179998Y2000D02*
X180998D01*
X180498D01*
Y4999D01*
X179998Y4499D01*
X60333Y69166D02*
X60000Y69499D01*
X59333D01*
X59000Y69166D01*
Y67833D01*
X59333Y67500D01*
X60000D01*
X60333Y67833D01*
X60999Y67500D02*
X61666D01*
X61333D01*
Y69499D01*
X60999Y69166D01*
X63998Y69499D02*
X62665D01*
Y68500D01*
X63332Y68833D01*
X63665D01*
X63998Y68500D01*
Y67833D01*
X63665Y67500D01*
X62999D01*
X62665Y67833D01*
X83354Y62499D02*
X82854Y62999D01*
X81854D01*
X81354Y62499D01*
Y60500D01*
X81854Y60000D01*
X82854D01*
X83354Y60500D01*
X84353Y60000D02*
X85353D01*
X84853D01*
Y62999D01*
X84353Y62499D01*
X88352Y60000D02*
Y62999D01*
X86853Y61500D01*
X88852D01*
X176499Y145531D02*
X175999Y146031D01*
X175000D01*
X174500Y145531D01*
Y143531D01*
X175000Y143032D01*
X175999D01*
X176499Y143531D01*
X177499Y143032D02*
X178499D01*
X177999D01*
Y146031D01*
X177499Y145531D01*
X179998Y143032D02*
X180998D01*
X180498D01*
Y146031D01*
X179998Y145531D01*
X191499Y91999D02*
X190999Y92499D01*
X190000D01*
X189500Y91999D01*
Y90000D01*
X190000Y89500D01*
X190999D01*
X191499Y90000D01*
X192499Y89500D02*
X193499D01*
X192999D01*
Y92499D01*
X192499Y91999D01*
X194998D02*
X195498Y92499D01*
X196498D01*
X196998Y91999D01*
Y90000D01*
X196498Y89500D01*
X195498D01*
X194998Y90000D01*
Y91999D01*
X135001Y81499D02*
X134501Y80999D01*
Y80000D01*
X135001Y79500D01*
X137000D01*
X137500Y80000D01*
Y80999D01*
X137000Y81499D01*
Y82499D02*
X137500Y82999D01*
Y83999D01*
X137000Y84498D01*
X135001D01*
X134501Y83999D01*
Y82999D01*
X135001Y82499D01*
X135501D01*
X136001Y82999D01*
Y84498D01*
X164001Y81499D02*
X163501Y80999D01*
Y80000D01*
X164001Y79500D01*
X166000D01*
X166500Y80000D01*
Y80999D01*
X166000Y81499D01*
X164001Y82499D02*
X163501Y82999D01*
Y83999D01*
X164001Y84498D01*
X164501D01*
X165000Y83999D01*
X165500Y84498D01*
X166000D01*
X166500Y83999D01*
Y82999D01*
X166000Y82499D01*
X165500D01*
X165000Y82999D01*
X164501Y82499D01*
X164001D01*
X165000Y82999D02*
Y83999D01*
X168501Y70999D02*
X168001Y70499D01*
Y69500D01*
X168501Y69000D01*
X170500D01*
X171000Y69500D01*
Y70499D01*
X170500Y70999D01*
X168001Y71999D02*
Y73998D01*
X168501D01*
X170500Y71999D01*
X171000D01*
X199001Y70999D02*
X198501Y70499D01*
Y69500D01*
X199001Y69000D01*
X201000D01*
X201500Y69500D01*
Y70499D01*
X201000Y70999D01*
X198501Y73998D02*
X199001Y72999D01*
X200001Y71999D01*
X201000D01*
X201500Y72499D01*
Y73499D01*
X201000Y73998D01*
X200500D01*
X200001Y73499D01*
Y71999D01*
X122750Y82500D02*
X122501Y82250D01*
Y81750D01*
X122750Y81500D01*
X123750D01*
X124000Y81750D01*
Y82250D01*
X123750Y82500D01*
X122501Y83999D02*
Y82999D01*
X123250D01*
X123000Y83499D01*
Y83749D01*
X123250Y83999D01*
X123750D01*
X124000Y83749D01*
Y83249D01*
X123750Y82999D01*
X93449Y124499D02*
X92950Y124000D01*
Y123000D01*
X93449Y122500D01*
X95449D01*
X95949Y123000D01*
Y124000D01*
X95449Y124499D01*
X95949Y126999D02*
X92950D01*
X94449Y125499D01*
Y127498D01*
X133499Y158999D02*
X133000Y159499D01*
X132000D01*
X131500Y158999D01*
Y157000D01*
X132000Y156500D01*
X133000D01*
X133499Y157000D01*
X134499Y158999D02*
X134999Y159499D01*
X135999D01*
X136498Y158999D01*
Y158499D01*
X135999Y158000D01*
X135499D01*
X135999D01*
X136498Y157500D01*
Y157000D01*
X135999Y156500D01*
X134999D01*
X134499Y157000D01*
X113499Y51499D02*
X112999Y51999D01*
X112000D01*
X111500Y51499D01*
Y49500D01*
X112000Y49000D01*
X112999D01*
X113499Y49500D01*
X116498Y49000D02*
X114499D01*
X116498Y50999D01*
Y51499D01*
X115999Y51999D01*
X114999D01*
X114499Y51499D01*
X150645Y52242D02*
X150145Y52742D01*
X149145D01*
X148645Y52242D01*
Y50243D01*
X149145Y49743D01*
X150145D01*
X150645Y50243D01*
X151644Y49743D02*
X152644D01*
X152144D01*
Y52742D01*
X151644Y52242D01*
M02*
