M48
;Layer_Color=9474304
;FILE_FORMAT=2:5
INCH,LZ
;TYPE=PLATED
T1F00S00C0.01200
T3F00S00C0.03150
T5F00S00C0.04331
T6F00S00C0.04724
T7F00S00C0.05118
T8F00S00C0.08563
;TYPE=NON_PLATED
T9F00S00C0.05906
%
T01
X0177161Y00075
X01885Y0035425
Y0039114
X01985Y00565
Y00605
Y00645
X0194Y0079
X0188083
X0182167
X017625
X0165Y00915
Y00945
Y00975
X01585Y0106842
X01523Y0104
X0142Y0093
Y009
X0139
Y0093
X013Y0092
Y0088648
X01235
Y0092
X0123374Y00775
X013Y00775
Y0071833
Y0066167
Y00605
X0144045Y00635
X0157045
X0164563Y00645
X0167056Y0029444
Y00075
X0141193Y004282
Y0046781
X0123874Y0042
X00985Y0044167
Y00495
Y0054833
Y0038833
X0073Y0039
Y0042333
Y0045667
Y0049
X00585Y0040874
X0047411
X0034631Y0050369
X00355Y0073789
Y0077
X00395Y0077028
Y008
Y0083
Y0073789
X0064Y0073
X0063Y00645
X006
X00785Y0071
X008225
X0086
Y007525
X008225
X00785
Y00795
X008225
X0086
X0101365Y0078
Y0083
X0108287Y00815
X0101365Y0073
X0095949Y0089173
X0112479Y0104
X0064Y0089
X00365Y0008374
X00215Y0112
Y0122
X0101Y0133
X010425
X0112Y0131182
X0110439Y0127
X011025Y0108
X0103Y0107
X01415Y01105
X0146278Y0137
X0149Y01405
X0152655Y01505
Y01535
X01575
Y01505
X01625Y01635
Y0171
X0141841Y0159159
X012425Y01475
X010425Y0156
X0101
X00835Y0160703
Y0167248
X0193Y01365
X02055Y01335
X0198Y0115
T03
X0113905Y0036574
Y0042484
X0151174Y0043
Y003709
T05
X02055Y0095
Y0105
X01225Y01645
X01125
X01025
X00925
X02055Y0125
Y0115
T06
X0012Y0112
Y0122
Y0132
T07
X0121689Y00165
X01335
X0145311
T08
X0196815Y0019685
X0019685
Y0157315
X0196815
T09
X0057Y01165
Y0146
M30
