G04*
G04 #@! TF.GenerationSoftware,Altium Limited,Altium Designer,19.0.10 (269)*
G04*
G04 Layer_Color=32768*
%FSLAX25Y25*%
%MOIN*%
G70*
G01*
G75*
%ADD10C,0.01000*%
%ADD93C,0.00010*%
D10*
X0Y0D02*
Y177165D01*
Y0D02*
X216535D01*
Y177165D01*
X0D02*
X216535D01*
D93*
X58613Y130800D02*
X58813Y131000D01*
X148494Y76707D02*
X148694Y76907D01*
X163057Y76345D02*
X163257Y76545D01*
X132533Y165463D02*
X132733Y165663D01*
X172369Y162380D02*
X172569Y162580D01*
X206825Y109900D02*
X207025Y110100D01*
X150176Y91559D02*
X150376Y91759D01*
X10475Y122100D02*
X10675Y121900D01*
X133400Y14037D02*
X133600Y14237D01*
X107400Y165825D02*
X107600Y166025D01*
X132257Y118363D02*
Y118646D01*
X104767Y93210D02*
X104967Y93010D01*
X119337Y71767D02*
X119537Y71967D01*
X119337Y60767D02*
X119537Y60967D01*
X48837Y76033D02*
X49037Y76233D01*
X47699Y55163D02*
X47899Y55363D01*
X20236Y62092D02*
X20436Y61892D01*
X60064Y13064D02*
X60264Y12864D01*
X48531Y13064D02*
X48731Y12864D01*
X45443Y31037D02*
X45643Y30837D01*
X56533Y31037D02*
X56733Y30837D01*
X84754Y27870D02*
X84954Y28070D01*
X175741Y18510D02*
X175941Y18310D01*
X165636Y18400D02*
X165836Y18200D01*
X130973Y38500D02*
X131173Y38300D01*
X111255Y39726D02*
X111455Y39526D01*
X148525Y40242D02*
X148725Y40042D01*
X182645Y41663D02*
X182845Y41463D01*
X172175Y113529D02*
X172375Y113329D01*
X186911Y113839D02*
X187111Y113639D01*
X153533Y141163D02*
X153733Y140963D01*
M02*
