G04*
G04 #@! TF.GenerationSoftware,Altium Limited,Altium Designer,19.0.10 (269)*
G04*
G04 Layer_Color=128*
%FSLAX25Y25*%
%MOIN*%
G70*
G01*
G75*
%ADD10C,0.01000*%
%ADD94C,0.00200*%
D10*
X0Y0D02*
Y177165D01*
Y0D02*
X216535D01*
Y177165D01*
X0D02*
X216535D01*
D94*
X54047Y146000D02*
X59953D01*
X57000Y143047D02*
Y148953D01*
X54047Y116500D02*
X59953D01*
X57000Y113547D02*
Y119453D01*
X203335Y125000D02*
X207665D01*
X205500Y122835D02*
Y127165D01*
X203335Y115000D02*
X207665D01*
X205500Y112835D02*
Y117165D01*
X203335Y105000D02*
X207665D01*
X205500Y102835D02*
Y107165D01*
X203335Y95000D02*
X207665D01*
X205500Y92835D02*
Y97165D01*
X192534Y19685D02*
X201097D01*
X196815Y15404D02*
Y23967D01*
X15404Y19685D02*
X23967D01*
X19685Y15404D02*
Y23967D01*
X15404Y157315D02*
X23967D01*
X19685Y153033D02*
Y161597D01*
X192534Y157315D02*
X201097D01*
X196815Y153033D02*
Y161597D01*
X9638Y112000D02*
X14362D01*
X12000Y109638D02*
Y114362D01*
X9638Y122000D02*
X14362D01*
X12000Y119638D02*
Y124362D01*
X9638Y132000D02*
X14362D01*
X12000Y129638D02*
Y134362D01*
X142752Y16500D02*
X147870D01*
X145311Y13941D02*
Y19059D01*
X130941Y16500D02*
X136059D01*
X133500Y13941D02*
Y19059D01*
X119130Y16500D02*
X124248D01*
X121689Y13941D02*
Y19059D01*
X154760Y16500D02*
X157909D01*
X156335Y14925D02*
Y18075D01*
X109091Y16500D02*
X112240D01*
X110665Y14925D02*
Y18075D01*
X90335Y164500D02*
X94665D01*
X92500Y162335D02*
Y166665D01*
X100335Y164500D02*
X104665D01*
X102500Y162335D02*
Y166665D01*
X110335Y164500D02*
X114665D01*
X112500Y162335D02*
Y166665D01*
X120335Y164500D02*
X124665D01*
X122500Y162335D02*
Y166665D01*
X13161Y44984D02*
X15917D01*
X14539Y43606D02*
Y46362D01*
X13161Y79000D02*
X15917D01*
X14539Y77622D02*
Y80378D01*
X28122Y44984D02*
X30878D01*
X29500Y43606D02*
Y46362D01*
X28122Y79000D02*
X30878D01*
X29500Y77622D02*
Y80378D01*
X112330Y42484D02*
X115480D01*
X113905Y40910D02*
Y44059D01*
X112330Y36574D02*
X115480D01*
X113905Y35000D02*
Y38149D01*
X149600Y43000D02*
X152749D01*
X151174Y41425D02*
Y44575D01*
X149600Y37090D02*
X152749D01*
X151174Y35515D02*
Y38665D01*
X123650Y147500D02*
X124850D01*
X124250Y146900D02*
Y148100D01*
X163963Y64500D02*
X165163D01*
X164563Y63900D02*
Y65100D01*
X46811Y40874D02*
X48011D01*
X47411Y40274D02*
Y41474D01*
X85400Y71000D02*
X86600D01*
X86000Y70400D02*
Y71600D01*
X81650Y71000D02*
X82850D01*
X82250Y70400D02*
Y71600D01*
X77900Y71000D02*
X79100D01*
X78500Y70400D02*
Y71600D01*
X85400Y75250D02*
X86600D01*
X86000Y74650D02*
Y75850D01*
X81650Y75250D02*
X82850D01*
X82250Y74650D02*
Y75850D01*
X77900Y75250D02*
X79100D01*
X78500Y74650D02*
Y75850D01*
X85400Y79500D02*
X86600D01*
X86000Y78900D02*
Y80100D01*
X81650Y79500D02*
X82850D01*
X82250Y78900D02*
Y80100D01*
X77900Y79500D02*
X79100D01*
X78500Y78900D02*
Y80100D01*
X140900Y110500D02*
X142100D01*
X141500Y109900D02*
Y111100D01*
X151700Y104000D02*
X152900D01*
X152300Y103400D02*
Y104600D01*
X161900Y163500D02*
X163100D01*
X162500Y162900D02*
Y164100D01*
X161900Y171000D02*
X163100D01*
X162500Y170400D02*
Y171600D01*
X141241Y159159D02*
X142441D01*
X141841Y158559D02*
Y159759D01*
X157900Y106842D02*
X159100D01*
X158500Y106242D02*
Y107441D01*
X197900Y60500D02*
X199100D01*
X198500Y59900D02*
Y61100D01*
X197900Y56500D02*
X199100D01*
X198500Y55900D02*
Y57100D01*
X197900Y64500D02*
X199100D01*
X198500Y63900D02*
Y65100D01*
X141400Y90000D02*
X142600D01*
X142000Y89400D02*
Y90600D01*
X138400Y90000D02*
X139600D01*
X139000Y89400D02*
Y90600D01*
X141400Y93000D02*
X142600D01*
X142000Y92400D02*
Y93600D01*
X138400Y93000D02*
X139600D01*
X139000Y92400D02*
Y93600D01*
X164400Y91500D02*
X165600D01*
X165000Y90900D02*
Y92100D01*
X164400Y94500D02*
X165600D01*
X165000Y93900D02*
Y95100D01*
X164400Y97500D02*
X165600D01*
X165000Y96900D02*
Y98100D01*
X109839Y127000D02*
X111039D01*
X110439Y126400D02*
Y127600D01*
X111400Y131182D02*
X112600D01*
X112000Y130582D02*
Y131782D01*
X107687Y81500D02*
X108887D01*
X108287Y80900D02*
Y82100D01*
X193400Y79000D02*
X194600D01*
X194000Y78400D02*
Y79600D01*
X187483Y79000D02*
X188683D01*
X188083Y78400D02*
Y79600D01*
X181567Y79000D02*
X182767D01*
X182167Y78400D02*
Y79600D01*
X175650Y79000D02*
X176850D01*
X176250Y78400D02*
Y79600D01*
X187900Y35425D02*
X189100D01*
X188500Y34825D02*
Y36025D01*
X187900Y39114D02*
X189100D01*
X188500Y38514D02*
Y39714D01*
X166456Y29444D02*
X167656D01*
X167056Y28844D02*
Y30044D01*
X123274Y42000D02*
X124474D01*
X123874Y41400D02*
Y42600D01*
X176561Y7500D02*
X177761D01*
X177161Y6900D02*
Y8100D01*
X140594Y42820D02*
X141794D01*
X141193Y42220D02*
Y43420D01*
X145678Y137000D02*
X146878D01*
X146278Y136400D02*
Y137600D01*
X148400Y140500D02*
X149600D01*
X149000Y139900D02*
Y141100D01*
X197400Y115000D02*
X198600D01*
X198000Y114400D02*
Y115600D01*
X204900Y133500D02*
X206100D01*
X205500Y132900D02*
Y134100D01*
X109650Y108000D02*
X110850D01*
X110250Y107400D02*
Y108600D01*
X20900Y112000D02*
X22100D01*
X21500Y111400D02*
Y112600D01*
X20900Y122000D02*
X22100D01*
X21500Y121400D02*
Y122600D01*
X95349Y89173D02*
X96549D01*
X95949Y88573D02*
Y89773D01*
X140594Y46781D02*
X141794D01*
X141193Y46181D02*
Y47381D01*
X72400Y49000D02*
X73600D01*
X73000Y48400D02*
Y49600D01*
X72400Y39000D02*
X73600D01*
X73000Y38400D02*
Y39600D01*
X72400Y42333D02*
X73600D01*
X73000Y41733D02*
Y42933D01*
X72400Y45667D02*
X73600D01*
X73000Y45067D02*
Y46267D01*
X59400Y64500D02*
X60600D01*
X60000Y63900D02*
Y65100D01*
X62400Y64500D02*
X63600D01*
X63000Y63900D02*
Y65100D01*
X100765Y83000D02*
X101965D01*
X101365Y82400D02*
Y83600D01*
X35900Y8374D02*
X37100D01*
X36500Y7774D02*
Y8974D01*
X63400Y73000D02*
X64600D01*
X64000Y72400D02*
Y73600D01*
X34031Y50369D02*
X35231D01*
X34631Y49769D02*
Y50969D01*
X38900Y83000D02*
X40100D01*
X39500Y82400D02*
Y83600D01*
X38900Y80000D02*
X40100D01*
X39500Y79400D02*
Y80600D01*
X38900Y73789D02*
X40100D01*
X39500Y73189D02*
Y74389D01*
X38900Y77028D02*
X40100D01*
X39500Y76428D02*
Y77628D01*
X34900Y73789D02*
X36100D01*
X35500Y73189D02*
Y74389D01*
X34900Y77000D02*
X36100D01*
X35500Y76400D02*
Y77600D01*
X111879Y104000D02*
X113079D01*
X112479Y103400D02*
Y104600D01*
X166456Y7500D02*
X167656D01*
X167056Y6900D02*
Y8100D01*
X129400Y60500D02*
X130600D01*
X130000Y59900D02*
Y61100D01*
X129400Y66167D02*
X130600D01*
X130000Y65567D02*
Y66767D01*
X129400Y71833D02*
X130600D01*
X130000Y71233D02*
Y72433D01*
X129400Y77500D02*
X130600D01*
X130000Y76900D02*
Y78100D01*
X122774Y77500D02*
X123974D01*
X123374Y76900D02*
Y78100D01*
X129400Y88648D02*
X130600D01*
X130000Y88048D02*
Y89249D01*
X122900Y88648D02*
X124100D01*
X123500Y88048D02*
Y89249D01*
X129400Y92000D02*
X130600D01*
X130000Y91400D02*
Y92600D01*
X122900Y92000D02*
X124100D01*
X123500Y91400D02*
Y92600D01*
X57900Y40874D02*
X59100D01*
X58500Y40274D02*
Y41474D01*
X100765Y73000D02*
X101965D01*
X101365Y72400D02*
Y73600D01*
X100765Y78000D02*
X101965D01*
X101365Y77400D02*
Y78600D01*
X97900Y49500D02*
X99100D01*
X98500Y48900D02*
Y50100D01*
X97900Y44167D02*
X99100D01*
X98500Y43567D02*
Y44767D01*
X97900Y38833D02*
X99100D01*
X98500Y38233D02*
Y39433D01*
X97900Y54833D02*
X99100D01*
X98500Y54233D02*
Y55433D01*
X63400Y89000D02*
X64600D01*
X64000Y88400D02*
Y89600D01*
X82900Y160703D02*
X84100D01*
X83500Y160103D02*
Y161303D01*
X82900Y167248D02*
X84100D01*
X83500Y166648D02*
Y167848D01*
X100400Y133000D02*
X101600D01*
X101000Y132400D02*
Y133600D01*
X103650Y133000D02*
X104850D01*
X104250Y132400D02*
Y133600D01*
X103650Y156000D02*
X104850D01*
X104250Y155400D02*
Y156600D01*
X100400Y156000D02*
X101600D01*
X101000Y155400D02*
Y156600D01*
X156900Y150500D02*
X158100D01*
X157500Y149900D02*
Y151100D01*
X152056Y150500D02*
X153255D01*
X152655Y149900D02*
Y151100D01*
X156900Y153500D02*
X158100D01*
X157500Y152900D02*
Y154100D01*
X152056Y153500D02*
X153255D01*
X152655Y152900D02*
Y154100D01*
X156445Y63500D02*
X157645D01*
X157045Y62900D02*
Y64100D01*
X143445Y63500D02*
X144645D01*
X144045Y62900D02*
Y64100D01*
X102400Y107000D02*
X103600D01*
X103000Y106400D02*
Y107600D01*
X192400Y136500D02*
X193600D01*
X193000Y135900D02*
Y137100D01*
M02*
