G04*
G04 #@! TF.GenerationSoftware,Altium Limited,Altium Designer,19.0.10 (269)*
G04*
G04 Layer_Color=16711935*
%FSLAX25Y25*%
%MOIN*%
G70*
G01*
G75*
%ADD10C,0.01000*%
%ADD41R,0.06902X0.04737*%
%ADD43R,0.06800X0.05800*%
%ADD54C,0.06706*%
%ADD55C,0.07493*%
%ADD56R,0.07493X0.07493*%
%ADD57C,0.16863*%
%ADD58R,0.07887X0.07000*%
%ADD59C,0.07887*%
%ADD60O,0.06706X0.10639*%
%ADD61R,0.07493X0.07493*%
%ADD62O,0.08276X0.05131*%
%ADD63C,0.05524*%
%ADD90R,0.16548X0.18517*%
%ADD91R,0.06312X0.05524*%
%ADD92R,0.04343X0.06706*%
D10*
X0Y0D02*
Y177165D01*
Y0D02*
X216535D01*
Y177165D01*
X0D02*
X216535D01*
D41*
X134500Y169500D02*
D03*
Y161626D02*
D03*
D43*
X158000Y92000D02*
D03*
X149000D02*
D03*
X146000Y167000D02*
D03*
X155000D02*
D03*
D54*
X57000Y146000D02*
D03*
Y116500D02*
D03*
D55*
X205500Y125000D02*
D03*
Y115000D02*
D03*
Y105000D02*
D03*
X102500Y164500D02*
D03*
X112500D02*
D03*
X122500D02*
D03*
D56*
X205500Y95000D02*
D03*
D57*
X196815Y19685D02*
D03*
X19685D02*
D03*
Y157315D02*
D03*
X196815D02*
D03*
D58*
X12000Y112000D02*
D03*
D59*
Y122000D02*
D03*
Y132000D02*
D03*
X145311Y16500D02*
D03*
X133500D02*
D03*
X121689D02*
D03*
D60*
X156335Y16500D02*
D03*
X110665Y16500D02*
D03*
D61*
X92500Y164500D02*
D03*
D62*
X14540Y44984D02*
D03*
Y79000D02*
D03*
X29500Y44984D02*
D03*
Y79000D02*
D03*
D63*
X113905Y42484D02*
D03*
Y36574D02*
D03*
X151174Y43000D02*
D03*
Y37090D02*
D03*
D90*
X57000Y161900D02*
D03*
Y101900D02*
D03*
D91*
X150000Y83500D02*
D03*
Y70114D02*
D03*
X164563Y69752D02*
D03*
Y83138D02*
D03*
D92*
X174000Y155000D02*
D03*
Y169961D02*
D03*
X168094D02*
D03*
Y155000D02*
D03*
M02*
