G04*
G04 #@! TF.GenerationSoftware,Altium Limited,Altium Designer,19.0.10 (269)*
G04*
G04 Layer_Color=8421504*
%FSLAX25Y25*%
%MOIN*%
G70*
G01*
G75*
%ADD10C,0.01000*%
%ADD20R,0.03150X0.03937*%
%ADD21R,0.05000X0.06000*%
G04:AMPARAMS|DCode=22|XSize=59.06mil|YSize=11.81mil|CornerRadius=0mil|HoleSize=0mil|Usage=FLASHONLY|Rotation=225.000|XOffset=0mil|YOffset=0mil|HoleType=Round|Shape=Round|*
%AMOVALD22*
21,1,0.04724,0.01181,0.00000,0.00000,225.0*
1,1,0.01181,0.01670,0.01670*
1,1,0.01181,-0.01670,-0.01670*
%
%ADD22OVALD22*%

G04:AMPARAMS|DCode=23|XSize=59.06mil|YSize=11.81mil|CornerRadius=0mil|HoleSize=0mil|Usage=FLASHONLY|Rotation=315.000|XOffset=0mil|YOffset=0mil|HoleType=Round|Shape=Round|*
%AMOVALD23*
21,1,0.04724,0.01181,0.00000,0.00000,315.0*
1,1,0.01181,-0.01670,0.01670*
1,1,0.01181,0.01670,-0.01670*
%
%ADD23OVALD23*%

%ADD24R,0.06102X0.03937*%
%ADD25R,0.03937X0.06102*%
%ADD26R,0.06000X0.05000*%
%ADD27O,0.06291X0.02362*%
%ADD28R,0.11811X0.13779*%
%ADD29R,0.04724X0.07480*%
%ADD30R,0.04724X0.03150*%
%ADD31R,0.04724X0.02756*%
%ADD32R,0.05510X0.05120*%
%ADD33R,0.04724X0.14961*%
%ADD34R,0.06299X0.13780*%
%ADD35R,0.02756X0.04921*%
%ADD36R,0.09449X0.07480*%
D10*
X0Y0D02*
Y177165D01*
Y0D02*
X216535D01*
Y177165D01*
X0D02*
X216535D01*
D20*
X153426Y93000D02*
D03*
X147125D02*
D03*
D21*
X103000Y124222D02*
D03*
Y115222D02*
D03*
X116000Y94500D02*
D03*
Y85500D02*
D03*
X144045Y82000D02*
D03*
Y73000D02*
D03*
X157045Y82000D02*
D03*
Y73000D02*
D03*
X177872Y61500D02*
D03*
Y70500D02*
D03*
X191878Y61500D02*
D03*
Y70500D02*
D03*
D22*
X129324Y97775D02*
D03*
X127932Y99167D02*
D03*
X126540Y100559D02*
D03*
X125148Y101951D02*
D03*
X123756Y103343D02*
D03*
X122364Y104735D02*
D03*
X120972Y106127D02*
D03*
X119580Y107519D02*
D03*
X118189Y108911D02*
D03*
X116796Y110302D02*
D03*
X115405Y111695D02*
D03*
X114013Y113086D02*
D03*
X137676Y136749D02*
D03*
X139068Y135357D02*
D03*
X140460Y133965D02*
D03*
X141852Y132574D02*
D03*
X143244Y131181D02*
D03*
X144636Y129790D02*
D03*
X146028Y128397D02*
D03*
X147420Y127006D02*
D03*
X148811Y125613D02*
D03*
X150204Y124222D02*
D03*
X151595Y122829D02*
D03*
X152988Y121438D02*
D03*
D23*
X114013Y121438D02*
D03*
X115405Y122830D02*
D03*
X116797Y124222D02*
D03*
X118189Y125614D02*
D03*
X119581Y127006D02*
D03*
X120972Y128398D02*
D03*
X122365Y129790D02*
D03*
X123757Y131182D02*
D03*
X125149Y132574D02*
D03*
X126540Y133966D02*
D03*
X127933Y135357D02*
D03*
X129324Y136750D02*
D03*
X152987Y113086D02*
D03*
X151595Y111694D02*
D03*
X150203Y110302D02*
D03*
X148811Y108910D02*
D03*
X147419Y107518D02*
D03*
X146028Y106126D02*
D03*
X144635Y104735D02*
D03*
X143244Y103342D02*
D03*
X141851Y101951D02*
D03*
X140460Y100558D02*
D03*
X139067Y99167D02*
D03*
X137676Y97775D02*
D03*
D24*
X103000Y89173D02*
D03*
Y97047D02*
D03*
X47411Y34874D02*
D03*
Y27000D02*
D03*
X58500Y34874D02*
D03*
Y27000D02*
D03*
X180878Y37626D02*
D03*
Y45500D02*
D03*
X188878Y117676D02*
D03*
Y109802D02*
D03*
X155500Y145000D02*
D03*
Y137126D02*
D03*
D25*
X123374Y70000D02*
D03*
X115500D02*
D03*
X123374Y59000D02*
D03*
X115500D02*
D03*
X45000Y78000D02*
D03*
X52874D02*
D03*
D26*
X80500Y53869D02*
D03*
X89500D02*
D03*
X52500Y66000D02*
D03*
X43500D02*
D03*
X173500Y91000D02*
D03*
X182500D02*
D03*
X173500Y136500D02*
D03*
X182500D02*
D03*
X135352Y150000D02*
D03*
X144351D02*
D03*
D27*
X93811Y68000D02*
D03*
Y73000D02*
D03*
Y78000D02*
D03*
Y83000D02*
D03*
X70189Y68000D02*
D03*
Y73000D02*
D03*
Y78000D02*
D03*
Y83000D02*
D03*
D28*
X82000Y75500D02*
D03*
D29*
X54098Y53500D02*
D03*
X41500D02*
D03*
D30*
X29500Y72622D02*
D03*
Y51362D02*
D03*
D31*
Y67898D02*
D03*
Y63961D02*
D03*
Y60024D02*
D03*
Y56087D02*
D03*
D32*
X58844Y8374D02*
D03*
Y16644D02*
D03*
X47311Y8374D02*
D03*
Y16644D02*
D03*
X177161Y23000D02*
D03*
Y14730D02*
D03*
X167056Y22890D02*
D03*
Y14620D02*
D03*
D33*
X79854Y39614D02*
D03*
X89854D02*
D03*
D34*
X102059Y12449D02*
D03*
X67650Y12449D02*
D03*
D35*
X132074Y33480D02*
D03*
X128334Y43320D02*
D03*
X135814D02*
D03*
D36*
X173500Y121500D02*
D03*
Y105358D02*
D03*
M02*
