G04*
G04 #@! TF.GenerationSoftware,Altium Limited,Altium Designer,19.0.10 (269)*
G04*
G04 Layer_Physical_Order=3*
G04 Layer_Color=128*
%FSLAX25Y25*%
%MOIN*%
G70*
G01*
G75*
%ADD10C,0.01000*%
%ADD77C,0.04000*%
%ADD78C,0.07506*%
%ADD79C,0.05931*%
%ADD80C,0.06324*%
%ADD81C,0.06718*%
%ADD82O,0.04750X0.08687*%
%ADD83O,0.07506X0.04356*%
%ADD84C,0.04750*%
%ADD85C,0.02800*%
%ADD86C,0.10163*%
D10*
X0Y0D02*
Y177165D01*
Y0D02*
X216535D01*
Y177165D01*
X0D02*
X216535D01*
D77*
X0Y0D02*
X216535D01*
X216535Y177165D02*
X216535Y0D01*
X0Y177165D02*
X216535Y177165D01*
X0Y0D02*
Y177165D01*
D78*
X57000Y146000D02*
D03*
Y116500D02*
D03*
D79*
X205500Y125000D02*
D03*
Y115000D02*
D03*
Y105000D02*
D03*
X92500Y164500D02*
D03*
X112500D02*
D03*
X122500D02*
D03*
D80*
X12000Y112000D02*
D03*
Y122000D02*
D03*
Y132000D02*
D03*
D81*
X145311Y16500D02*
D03*
X133500D02*
D03*
X121689D02*
D03*
D82*
X156335D02*
D03*
X110665D02*
D03*
D83*
X14539Y44984D02*
D03*
Y79000D02*
D03*
X29500Y44984D02*
D03*
Y79000D02*
D03*
D84*
X113905Y42484D02*
D03*
Y36574D02*
D03*
X151174Y43000D02*
D03*
Y37090D02*
D03*
D85*
X47411Y40874D02*
D03*
X86000Y71000D02*
D03*
X82250D02*
D03*
X78500D02*
D03*
X86000Y75250D02*
D03*
X82250D02*
D03*
X78500D02*
D03*
X86000Y79500D02*
D03*
X82250D02*
D03*
X78500D02*
D03*
X141500Y110500D02*
D03*
X152300Y104000D02*
D03*
X162500Y163500D02*
D03*
Y171000D02*
D03*
X158500Y106842D02*
D03*
X198500Y60500D02*
D03*
Y56500D02*
D03*
Y64500D02*
D03*
X142000Y90000D02*
D03*
X139000D02*
D03*
X142000Y93000D02*
D03*
X139000D02*
D03*
X165000Y91500D02*
D03*
Y94500D02*
D03*
Y97500D02*
D03*
X110439Y127000D02*
D03*
X112000Y131182D02*
D03*
X108287Y81500D02*
D03*
X194000Y79000D02*
D03*
X188083D02*
D03*
X182167D02*
D03*
X176250D02*
D03*
X167056Y29444D02*
D03*
X123874Y42000D02*
D03*
X177161Y7500D02*
D03*
X141193Y42820D02*
D03*
X146278Y137000D02*
D03*
X149000Y140500D02*
D03*
X198000Y115000D02*
D03*
X205500Y133500D02*
D03*
X110250Y108000D02*
D03*
X21500Y112000D02*
D03*
Y122000D02*
D03*
X95949Y89173D02*
D03*
X141193Y46781D02*
D03*
X73000Y49000D02*
D03*
Y39000D02*
D03*
Y42333D02*
D03*
Y45667D02*
D03*
X60000Y64500D02*
D03*
X63000D02*
D03*
X101365Y83000D02*
D03*
X36500Y8374D02*
D03*
X64000Y73000D02*
D03*
X34631Y50369D02*
D03*
X39500Y83000D02*
D03*
Y80000D02*
D03*
Y73789D02*
D03*
Y77028D02*
D03*
X35500Y73789D02*
D03*
Y77000D02*
D03*
X112479Y104000D02*
D03*
X167056Y7500D02*
D03*
X58500Y40874D02*
D03*
X101365Y73000D02*
D03*
Y78000D02*
D03*
X98500Y49500D02*
D03*
Y44167D02*
D03*
Y38833D02*
D03*
Y54833D02*
D03*
X64000Y89000D02*
D03*
X83500Y160703D02*
D03*
Y167248D02*
D03*
X157500Y150500D02*
D03*
X152655D02*
D03*
X157500Y153500D02*
D03*
X152655D02*
D03*
X157045Y63500D02*
D03*
X144045D02*
D03*
X103000Y107000D02*
D03*
X193000Y136500D02*
D03*
D86*
X196815Y19685D02*
D03*
X19685D02*
D03*
Y157315D02*
D03*
X196815D02*
D03*
M02*
