G04*
G04 #@! TF.GenerationSoftware,Altium Limited,Altium Designer,19.0.10 (269)*
G04*
G04 Layer_Color=255*
%FSLAX25Y25*%
%MOIN*%
G70*
G01*
G75*
%ADD10C,0.01000*%
%ADD24R,0.06102X0.03937*%
%ADD26R,0.06000X0.05000*%
%ADD66C,0.05906*%
%ADD67C,0.06693*%
%ADD68R,0.06693X0.06693*%
%ADD69C,0.16063*%
%ADD70R,0.07087X0.06200*%
%ADD71C,0.07087*%
%ADD72O,0.05906X0.09839*%
%ADD73R,0.06693X0.06693*%
%ADD74O,0.07476X0.04331*%
%ADD75C,0.04724*%
%ADD87R,0.15748X0.17717*%
%ADD88R,0.05512X0.04724*%
%ADD89R,0.03543X0.05906*%
D10*
X0Y0D02*
Y177165D01*
Y0D02*
X216535D01*
Y177165D01*
X0D02*
X216535D01*
D24*
X134500Y169500D02*
D03*
Y161626D02*
D03*
D26*
X158000Y92000D02*
D03*
X149000D02*
D03*
X146000Y167000D02*
D03*
X155000D02*
D03*
D66*
X57000Y146000D02*
D03*
Y116500D02*
D03*
D67*
X205500Y125000D02*
D03*
Y115000D02*
D03*
Y105000D02*
D03*
X102500Y164500D02*
D03*
X112500D02*
D03*
X122500D02*
D03*
D68*
X205500Y95000D02*
D03*
D69*
X196815Y19685D02*
D03*
X19685D02*
D03*
Y157315D02*
D03*
X196815D02*
D03*
D70*
X12000Y112000D02*
D03*
D71*
Y122000D02*
D03*
Y132000D02*
D03*
X145311Y16500D02*
D03*
X133500D02*
D03*
X121689D02*
D03*
D72*
X156335Y16500D02*
D03*
X110665Y16500D02*
D03*
D73*
X92500Y164500D02*
D03*
D74*
X14540Y44984D02*
D03*
Y79000D02*
D03*
X29500Y44984D02*
D03*
Y79000D02*
D03*
D75*
X113905Y42484D02*
D03*
Y36574D02*
D03*
X151174Y43000D02*
D03*
Y37090D02*
D03*
D87*
X57000Y161900D02*
D03*
Y101900D02*
D03*
D88*
X150000Y83500D02*
D03*
Y70114D02*
D03*
X164563Y69752D02*
D03*
Y83138D02*
D03*
D89*
X174000Y155000D02*
D03*
Y169961D02*
D03*
X168094D02*
D03*
Y155000D02*
D03*
M02*
