G04*
G04 #@! TF.GenerationSoftware,Altium Limited,Altium Designer,19.0.10 (269)*
G04*
G04 Layer_Physical_Order=1*
G04 Layer_Color=255*
%FSLAX25Y25*%
%MOIN*%
G70*
G01*
G75*
%ADD10C,0.01000*%
%ADD15C,0.01200*%
%ADD20R,0.03150X0.03937*%
%ADD21R,0.05000X0.06000*%
G04:AMPARAMS|DCode=22|XSize=59.06mil|YSize=11.81mil|CornerRadius=0mil|HoleSize=0mil|Usage=FLASHONLY|Rotation=225.000|XOffset=0mil|YOffset=0mil|HoleType=Round|Shape=Round|*
%AMOVALD22*
21,1,0.04724,0.01181,0.00000,0.00000,225.0*
1,1,0.01181,0.01670,0.01670*
1,1,0.01181,-0.01670,-0.01670*
%
%ADD22OVALD22*%

G04:AMPARAMS|DCode=23|XSize=59.06mil|YSize=11.81mil|CornerRadius=0mil|HoleSize=0mil|Usage=FLASHONLY|Rotation=315.000|XOffset=0mil|YOffset=0mil|HoleType=Round|Shape=Round|*
%AMOVALD23*
21,1,0.04724,0.01181,0.00000,0.00000,315.0*
1,1,0.01181,-0.01670,0.01670*
1,1,0.01181,0.01670,-0.01670*
%
%ADD23OVALD23*%

%ADD24R,0.06102X0.03937*%
%ADD25R,0.03937X0.06102*%
%ADD26R,0.06000X0.05000*%
%ADD27O,0.06291X0.02362*%
%ADD28R,0.11811X0.13779*%
%ADD29R,0.04724X0.07480*%
%ADD30R,0.04724X0.03150*%
%ADD31R,0.04724X0.02756*%
%ADD32R,0.05510X0.05120*%
%ADD33R,0.04724X0.14961*%
%ADD34R,0.06299X0.13780*%
%ADD35R,0.02756X0.04921*%
%ADD36R,0.09449X0.07480*%
%ADD64C,0.01500*%
%ADD65C,0.00600*%
%ADD66C,0.05906*%
%ADD67C,0.06693*%
%ADD68R,0.06693X0.06693*%
%ADD69C,0.16063*%
%ADD70R,0.07087X0.06200*%
%ADD71C,0.07087*%
%ADD72O,0.05906X0.09839*%
%ADD73R,0.06693X0.06693*%
%ADD74O,0.07476X0.04331*%
%ADD75C,0.04724*%
%ADD76C,0.02200*%
G36*
X215414Y1122D02*
X1122D01*
Y176044D01*
X215414D01*
Y1122D01*
D02*
G37*
%LPC*%
G36*
X123284Y173418D02*
X113000D01*
X112649Y173348D01*
X112351Y173149D01*
X111851Y172649D01*
X111652Y172351D01*
X111582Y172000D01*
X108149D01*
X108000Y172149D01*
Y170000D01*
X87000D01*
Y159159D01*
X97851D01*
Y121165D01*
X98041Y120706D01*
X98500Y120516D01*
Y117963D01*
X98564Y118027D01*
X107417D01*
X107762Y117665D01*
X107314Y107925D01*
X107314Y107925D01*
X107500Y107503D01*
Y102491D01*
X104315D01*
X103964Y102421D01*
X103666Y102223D01*
X102351Y100907D01*
X102152Y100610D01*
X102082Y100258D01*
Y99616D01*
X99349D01*
Y94479D01*
Y91500D01*
X106500D01*
Y94327D01*
X106651Y94479D01*
Y99616D01*
X104362D01*
X104155Y100116D01*
X104695Y100656D01*
X112351D01*
Y91500D01*
X111132D01*
Y88152D01*
X119272D01*
X119720Y87928D01*
Y76852D01*
X119220Y76558D01*
X119000Y76649D01*
X105500D01*
X105041Y76459D01*
X104851Y76000D01*
Y30500D01*
Y20436D01*
X104695Y20000D01*
X104236Y19939D01*
X98310D01*
Y4959D01*
X105809D01*
X106268Y4500D01*
X107562D01*
Y11963D01*
X108036Y12124D01*
X108132Y11999D01*
X108874Y11429D01*
X109738Y11071D01*
X110665Y10949D01*
X111593Y11071D01*
X112457Y11429D01*
X113199Y11999D01*
X113769Y12741D01*
X114127Y13605D01*
X114249Y14533D01*
Y18466D01*
X114127Y19394D01*
X113769Y20258D01*
X113199Y21000D01*
X112457Y21570D01*
X111593Y21928D01*
X110665Y22050D01*
X109738Y21928D01*
X108874Y21570D01*
X108132Y21000D01*
X108036Y20875D01*
X107562Y21036D01*
Y26688D01*
X107657Y26783D01*
X140416D01*
Y24158D01*
X140351Y24000D01*
Y8374D01*
X140541Y7915D01*
X141000Y7725D01*
X151000D01*
X151459Y7915D01*
X151649Y8374D01*
X151649Y18967D01*
X152512Y19830D01*
X152936Y19547D01*
X152873Y19395D01*
X152751Y18467D01*
Y14534D01*
X152873Y13606D01*
X153231Y12742D01*
X153801Y12000D01*
X154543Y11430D01*
X155407Y11072D01*
X156335Y10950D01*
X157262Y11072D01*
X158126Y11430D01*
X158869Y12000D01*
X159438Y12742D01*
X159796Y13606D01*
X159918Y14534D01*
Y18467D01*
X159796Y19395D01*
X159438Y20259D01*
X158869Y21001D01*
X158126Y21571D01*
X157262Y21929D01*
X156335Y22051D01*
X155407Y21929D01*
X155255Y21866D01*
X154972Y22289D01*
X163459Y30777D01*
X163649Y31236D01*
Y39750D01*
X163459Y40209D01*
X163000Y40399D01*
X139250D01*
X138791Y40209D01*
X137231Y38649D01*
X131149D01*
Y40000D01*
X131149Y48245D01*
X130959Y48704D01*
X130500Y48894D01*
X126069Y48894D01*
X125855Y48806D01*
X125637Y48730D01*
X116405Y40521D01*
X115813Y40149D01*
X113930D01*
X113905Y40139D01*
X113879Y40149D01*
X110149D01*
Y50603D01*
X111647Y52101D01*
X119000D01*
X119459Y52291D01*
X119649Y52750D01*
Y54064D01*
X120149Y54201D01*
X120247Y54037D01*
X120314Y53987D01*
X120346Y53909D01*
X120506Y53843D01*
X120645Y53739D01*
X120728Y53751D01*
X120805Y53719D01*
X133876D01*
X133995Y53769D01*
X134124D01*
X134216Y53860D01*
X134335Y53909D01*
X134385Y54029D01*
X134476Y54120D01*
X134683Y54620D01*
Y54749D01*
X134732Y54869D01*
X134683Y54988D01*
Y55117D01*
X134649Y55151D01*
Y87279D01*
X134721Y87351D01*
X140945D01*
Y85600D01*
Y78400D01*
Y76000D01*
X147235D01*
X147145Y76090D01*
Y78400D01*
Y85324D01*
X153945D01*
Y78400D01*
Y76000D01*
X160235D01*
X160145Y76090D01*
Y78400D01*
Y85600D01*
X157963D01*
Y90362D01*
X157765Y90560D01*
X155601D01*
Y95569D01*
Y97782D01*
X157700D01*
X158051Y97852D01*
X158349Y98051D01*
X164738Y104440D01*
X168176D01*
Y101018D01*
X172582D01*
Y94100D01*
X169900D01*
Y87900D01*
X177100D01*
Y87900D01*
X180000D01*
Y94100D01*
X177100D01*
Y94100D01*
X174418D01*
Y101018D01*
X178824D01*
Y104440D01*
X182277D01*
X182628Y104510D01*
X182926Y104709D01*
X183277Y105061D01*
X183476Y105358D01*
X183546Y105710D01*
Y108550D01*
X183880Y108884D01*
X185227D01*
Y107233D01*
X192529D01*
Y112370D01*
Y115107D01*
Y120244D01*
X185227D01*
Y118593D01*
X183880D01*
X183418Y119056D01*
Y121149D01*
X183348Y121500D01*
X183149Y121797D01*
X182797Y122149D01*
X182500Y122348D01*
X182149Y122418D01*
X178824D01*
Y125840D01*
X174418D01*
Y133400D01*
X176500D01*
Y131924D01*
X176527Y131952D01*
X179500D01*
Y141000D01*
X176500Y141008D01*
Y139600D01*
X169900D01*
Y133400D01*
X172582D01*
Y125840D01*
X168176D01*
Y122418D01*
X166148D01*
X165797Y122348D01*
X165500Y122149D01*
X164351Y121000D01*
X164152Y120703D01*
X164082Y120352D01*
Y111881D01*
X155779D01*
X155516Y112274D01*
X152175Y115615D01*
X151781Y115878D01*
X151316Y115971D01*
X150852Y115878D01*
X150458Y115615D01*
X150195Y115221D01*
X150103Y114757D01*
X150103Y114756D01*
X149925Y114578D01*
X149460Y114486D01*
X149067Y114223D01*
X148803Y113829D01*
X148711Y113364D01*
X148248Y113130D01*
X148068Y113094D01*
X147674Y112831D01*
X147411Y112437D01*
X147319Y111973D01*
X147319Y111972D01*
X147141Y111794D01*
X146677Y111702D01*
X146283Y111439D01*
X146020Y111045D01*
X145927Y110580D01*
X146020Y110116D01*
X146283Y109722D01*
X146896Y109109D01*
X146770Y108528D01*
X146554Y108384D01*
X146410Y108168D01*
X145829Y108042D01*
X145216Y108655D01*
X144822Y108918D01*
X144357Y109010D01*
X144299Y108999D01*
X143161Y110137D01*
X143233Y110500D01*
X143101Y111163D01*
X142726Y111726D01*
X142163Y112101D01*
X141500Y112233D01*
X140837Y112101D01*
X140274Y111726D01*
X139899Y111163D01*
X139767Y110500D01*
X139899Y109837D01*
X140274Y109274D01*
X140837Y108899D01*
X141500Y108767D01*
X141863Y108839D01*
X142639Y108064D01*
X142501Y107531D01*
X142481Y107514D01*
X142106Y107263D01*
X141843Y106869D01*
X141751Y106405D01*
X141288Y106170D01*
X141109Y106134D01*
X140715Y105871D01*
X140452Y105477D01*
X140416Y105298D01*
X140241Y104953D01*
X139896Y104778D01*
X139716Y104743D01*
X139322Y104480D01*
X139059Y104086D01*
X138967Y103621D01*
X138504Y103386D01*
X138325Y103350D01*
X137931Y103087D01*
X137668Y102693D01*
X137632Y102514D01*
X137457Y102169D01*
X137112Y101994D01*
X136933Y101959D01*
X136539Y101696D01*
X136276Y101302D01*
X136183Y100837D01*
X135720Y100602D01*
X135541Y100566D01*
X135147Y100303D01*
X134884Y99910D01*
X134792Y99445D01*
X134851Y99148D01*
Y98721D01*
X134351Y98504D01*
X134000Y98649D01*
X132769D01*
X132169Y99249D01*
X132208Y99446D01*
X132116Y99910D01*
X131853Y100304D01*
X131459Y100567D01*
X130994Y100660D01*
X130530Y100567D01*
X130136Y100304D01*
X129650Y99818D01*
X129050Y99924D01*
X128905Y100140D01*
X128689Y100285D01*
X128583Y100885D01*
X129069Y101371D01*
X129332Y101765D01*
X129424Y102229D01*
X129332Y102694D01*
X129069Y103088D01*
X128675Y103351D01*
X128210Y103443D01*
X128210Y103443D01*
X128032Y103621D01*
X127940Y104086D01*
X127677Y104479D01*
X127283Y104743D01*
X126818Y104835D01*
X126584Y105298D01*
X126548Y105478D01*
X126285Y105872D01*
X125891Y106135D01*
X125427Y106227D01*
X125426Y106227D01*
X125248Y106405D01*
X125156Y106869D01*
X124893Y107263D01*
X124499Y107526D01*
X124320Y107562D01*
X123974Y107738D01*
X123800Y108082D01*
X123764Y108262D01*
X123501Y108656D01*
X123107Y108919D01*
X122643Y109011D01*
X122408Y109474D01*
X122372Y109653D01*
X122109Y110047D01*
X121715Y110310D01*
X121536Y110346D01*
X121191Y110521D01*
X121016Y110866D01*
X120980Y111046D01*
X120717Y111440D01*
X120324Y111703D01*
X119859Y111795D01*
X119624Y112258D01*
X119588Y112437D01*
X119325Y112831D01*
X118931Y113094D01*
X118752Y113130D01*
X118406Y113305D01*
X118232Y113650D01*
X118197Y113830D01*
X117933Y114224D01*
X117540Y114487D01*
X117075Y114579D01*
X116840Y115042D01*
X116804Y115221D01*
X116541Y115615D01*
X116147Y115878D01*
Y117676D01*
X115754Y118069D01*
X115928Y118603D01*
X116148Y118646D01*
X116542Y118909D01*
X116805Y119303D01*
X116897Y119768D01*
X116805Y120232D01*
X116542Y120626D01*
X115928Y121239D01*
X116054Y121821D01*
X116270Y121965D01*
X116414Y122181D01*
X116995Y122307D01*
X117609Y121693D01*
X118003Y121430D01*
X118467Y121338D01*
X118932Y121430D01*
X119326Y121693D01*
X119589Y122087D01*
X119681Y122552D01*
X119681Y122552D01*
X119859Y122730D01*
X120324Y122822D01*
X120717Y123086D01*
X120980Y123479D01*
X121016Y123659D01*
X121192Y124004D01*
X121536Y124178D01*
X121716Y124214D01*
X122110Y124477D01*
X122373Y124871D01*
X122465Y125336D01*
X122465Y125336D01*
X122643Y125514D01*
X123107Y125606D01*
X123501Y125869D01*
X123764Y126263D01*
X123800Y126442D01*
X123975Y126788D01*
X124320Y126962D01*
X124500Y126998D01*
X124893Y127261D01*
X125157Y127655D01*
X125249Y128119D01*
X125712Y128355D01*
X125891Y128390D01*
X126285Y128653D01*
X126548Y129047D01*
X126584Y129226D01*
X126759Y129572D01*
X127104Y129746D01*
X127284Y129782D01*
X127678Y130045D01*
X127941Y130439D01*
X128033Y130903D01*
X128496Y131138D01*
X128675Y131174D01*
X129069Y131437D01*
X129332Y131831D01*
X129368Y132010D01*
X129543Y132355D01*
X129888Y132530D01*
X130068Y132566D01*
X130461Y132829D01*
X130724Y133223D01*
X130817Y133687D01*
X131280Y133922D01*
X131459Y133958D01*
X131853Y134221D01*
X132116Y134615D01*
X132209Y135079D01*
X132116Y135544D01*
X131853Y135938D01*
X128512Y139278D01*
X128119Y139542D01*
X127654Y139634D01*
X127189Y139542D01*
X126796Y139278D01*
X126532Y138885D01*
X126497Y138705D01*
X126322Y138360D01*
X125977Y138185D01*
X125798Y138149D01*
X125404Y137886D01*
X125141Y137492D01*
X125048Y137028D01*
X124871Y136850D01*
X124870Y136850D01*
X124405Y136758D01*
X124012Y136494D01*
X123749Y136101D01*
X123713Y135921D01*
X123478Y135458D01*
X123014Y135365D01*
X122620Y135102D01*
X122357Y134708D01*
X122265Y134244D01*
X122087Y134066D01*
X122086Y134066D01*
X121622Y133974D01*
X121228Y133711D01*
X120965Y133317D01*
X120929Y133137D01*
X120755Y132792D01*
X120409Y132617D01*
X120230Y132581D01*
X119836Y132318D01*
X119573Y131924D01*
X119553Y131822D01*
X119010Y131658D01*
X113418Y137250D01*
Y142539D01*
X128649Y157771D01*
X128848Y158068D01*
X128918Y158419D01*
Y167784D01*
X128848Y168135D01*
X128649Y168433D01*
X127500Y169582D01*
Y169846D01*
X127654Y170000D01*
X127082D01*
X123933Y173149D01*
X123635Y173348D01*
X123284Y173418D01*
D02*
G37*
G36*
X141841Y160892D02*
X141178Y160760D01*
X140616Y160384D01*
X140240Y159822D01*
X140108Y159159D01*
X140240Y158495D01*
X140616Y157933D01*
X141178Y157557D01*
X141841Y157425D01*
X142505Y157557D01*
X143067Y157933D01*
X143443Y158495D01*
X143575Y159159D01*
X143443Y159822D01*
X143067Y160384D01*
X142505Y160760D01*
X141841Y160892D01*
D02*
G37*
G36*
X141752Y154500D02*
X138000D01*
Y153100D01*
X131752D01*
Y151224D01*
X127000D01*
X126532Y151130D01*
X126135Y150865D01*
X124461Y149191D01*
X124250Y149233D01*
X123587Y149101D01*
X123024Y148726D01*
X122649Y148163D01*
X122517Y147500D01*
X122649Y146837D01*
X123024Y146274D01*
X123587Y145899D01*
X124250Y145767D01*
X124913Y145899D01*
X125476Y146274D01*
X125851Y146837D01*
X125922Y147192D01*
X127507Y148776D01*
X131752D01*
Y146900D01*
X134128D01*
Y144149D01*
X134221Y143680D01*
X134486Y143283D01*
X135635Y142135D01*
X136032Y141870D01*
X136500Y141777D01*
X139493D01*
X140118Y141151D01*
Y140922D01*
X136811Y137615D01*
X136782Y137572D01*
X135147Y135937D01*
X134884Y135543D01*
X134792Y135079D01*
X134884Y134614D01*
X135147Y134220D01*
X135541Y133957D01*
X136005Y133865D01*
X136470Y133957D01*
X136864Y134220D01*
X138501Y135858D01*
X138541Y135884D01*
X142207Y139550D01*
X142472Y139947D01*
X142565Y140416D01*
Y141658D01*
X142472Y142126D01*
X142207Y142523D01*
X142057Y142673D01*
X141752Y143047D01*
Y145502D01*
Y154500D01*
D02*
G37*
G36*
X57000Y149583D02*
X56072Y149461D01*
X55208Y149103D01*
X54466Y148534D01*
X53897Y147792D01*
X53539Y146927D01*
X53417Y146000D01*
X53539Y145072D01*
X53897Y144208D01*
X54466Y143466D01*
X55208Y142897D01*
X56072Y142539D01*
X57000Y142417D01*
X57928Y142539D01*
X58792Y142897D01*
X59534Y143466D01*
X60103Y144208D01*
X60461Y145072D01*
X60584Y146000D01*
X60461Y146927D01*
X60103Y147792D01*
X59534Y148534D01*
X58792Y149103D01*
X57928Y149461D01*
X57000Y149583D01*
D02*
G37*
G36*
X182129Y138376D02*
X181602Y138272D01*
X181155Y137973D01*
X180905Y137723D01*
X180606Y137276D01*
X180502Y136749D01*
X180606Y136223D01*
X180905Y135776D01*
X181351Y135478D01*
X181878Y135373D01*
X181884Y135374D01*
X182102Y135228D01*
X182629Y135124D01*
X182629Y135124D01*
X193000D01*
X193527Y135228D01*
X193973Y135527D01*
X194272Y135973D01*
X194376Y136500D01*
X194272Y137027D01*
X193973Y137473D01*
X193527Y137772D01*
X193000Y137876D01*
X183199D01*
X183102Y137973D01*
X182655Y138272D01*
X182129Y138376D01*
D02*
G37*
G36*
X146500Y142631D02*
X146586Y142545D01*
X146586Y142014D01*
X143067Y138495D01*
X143067D01*
X143074Y138479D01*
X143084Y138458D01*
D01*
X143245Y138093D01*
X141970Y136817D01*
X141665Y136757D01*
X141272Y136494D01*
X137931Y133153D01*
X137668Y132759D01*
X137575Y132295D01*
X137668Y131830D01*
X137931Y131436D01*
X138325Y131173D01*
X138789Y131081D01*
X138790Y131081D01*
X138968Y130903D01*
X139060Y130439D01*
X139323Y130045D01*
X139717Y129782D01*
X139897Y129746D01*
X140242Y129571D01*
X140416Y129226D01*
X140452Y129046D01*
X140715Y128653D01*
X141109Y128390D01*
X141573Y128297D01*
X141574Y128297D01*
X141752Y128119D01*
X141844Y127655D01*
X142107Y127261D01*
X142501Y126998D01*
X142680Y126962D01*
X143026Y126787D01*
X143200Y126442D01*
X143236Y126262D01*
X143499Y125868D01*
X143893Y125605D01*
X144357Y125513D01*
X144592Y125050D01*
X144628Y124871D01*
X144891Y124477D01*
X145285Y124214D01*
X145464Y124178D01*
X145809Y124003D01*
X145984Y123658D01*
X146020Y123478D01*
X146283Y123085D01*
X146677Y122822D01*
X147141Y122729D01*
X147376Y122266D01*
X147412Y122087D01*
X147675Y121693D01*
X148069Y121430D01*
X148248Y121394D01*
X148593Y121219D01*
X148768Y120874D01*
X148803Y120694D01*
X149067Y120301D01*
X149460Y120038D01*
X149925Y119945D01*
X150160Y119482D01*
X150196Y119303D01*
X150459Y118909D01*
X150853Y118646D01*
X151317Y118554D01*
X151782Y118646D01*
X152176Y118909D01*
X155516Y122250D01*
X155779Y122644D01*
X155872Y123108D01*
X155779Y123573D01*
X155516Y123967D01*
X155122Y124230D01*
X154943Y124266D01*
X154479Y124500D01*
X154387Y124964D01*
X154124Y125358D01*
X153730Y125621D01*
X153266Y125714D01*
X153088Y125891D01*
X153088Y125892D01*
X152996Y126357D01*
X152732Y126750D01*
X152339Y127014D01*
X152159Y127049D01*
X151696Y127284D01*
X151603Y127748D01*
X151340Y128142D01*
X150946Y128405D01*
X150482Y128498D01*
X150304Y128675D01*
X150304Y128676D01*
X150212Y129141D01*
X149948Y129534D01*
X149555Y129797D01*
X149375Y129833D01*
X148912Y130068D01*
X148819Y130532D01*
X148556Y130926D01*
X148162Y131189D01*
X147698Y131281D01*
X147520Y131459D01*
X147520Y131460D01*
X147428Y131924D01*
X147165Y132318D01*
X146771Y132581D01*
X146706Y132594D01*
X146541Y133137D01*
X149613Y136208D01*
X151849D01*
Y134557D01*
X159151D01*
Y138885D01*
X159500D01*
Y142500D01*
X151500Y142631D01*
Y142631D01*
X151387Y142521D01*
X146500Y142631D01*
D02*
G37*
G36*
X17500Y137126D02*
X6500D01*
Y106500D01*
X17500D01*
Y111082D01*
X20069D01*
X20274Y110774D01*
X20837Y110399D01*
X21500Y110267D01*
X22163Y110399D01*
X22726Y110774D01*
X23101Y111337D01*
X23233Y112000D01*
X23101Y112663D01*
X22726Y113226D01*
X22163Y113601D01*
X21500Y113733D01*
X20837Y113601D01*
X20274Y113226D01*
X20069Y112918D01*
X17500D01*
Y121082D01*
X20069D01*
X20274Y120774D01*
X20837Y120399D01*
X21500Y120267D01*
X22163Y120399D01*
X22726Y120774D01*
X23101Y121337D01*
X23233Y122000D01*
X23101Y122663D01*
X22726Y123226D01*
X22163Y123601D01*
X21500Y123733D01*
X20837Y123601D01*
X20274Y123226D01*
X20069Y122918D01*
X17500D01*
Y137126D01*
D02*
G37*
G36*
X205500Y135233D02*
X204837Y135101D01*
X204274Y134726D01*
X203899Y134163D01*
X203767Y133500D01*
X203899Y132837D01*
X204274Y132274D01*
X204582Y132069D01*
Y130439D01*
X200000D01*
Y115918D01*
X199431D01*
X199226Y116226D01*
X198663Y116601D01*
X198000Y116733D01*
X197337Y116601D01*
X196774Y116226D01*
X196399Y115663D01*
X196267Y115000D01*
X196399Y114337D01*
X196774Y113774D01*
X197337Y113399D01*
X198000Y113267D01*
X198663Y113399D01*
X199226Y113774D01*
X199431Y114082D01*
X200000D01*
Y89649D01*
X211000D01*
Y130439D01*
X206418D01*
Y132069D01*
X206726Y132274D01*
X207101Y132837D01*
X207233Y133500D01*
X207101Y134163D01*
X206726Y134726D01*
X206163Y135101D01*
X205500Y135233D01*
D02*
G37*
G36*
X57000Y120083D02*
X56072Y119961D01*
X55208Y119603D01*
X54466Y119034D01*
X53897Y118292D01*
X53539Y117428D01*
X53417Y116500D01*
X53539Y115573D01*
X53897Y114708D01*
X54466Y113966D01*
X55208Y113397D01*
X56072Y113039D01*
X57000Y112917D01*
X57928Y113039D01*
X58792Y113397D01*
X59534Y113966D01*
X60103Y114708D01*
X60461Y115573D01*
X60584Y116500D01*
X60461Y117428D01*
X60103Y118292D01*
X59534Y119034D01*
X58792Y119603D01*
X57928Y119961D01*
X57000Y120083D01*
D02*
G37*
G36*
X103000Y116598D02*
X102473Y116493D01*
X102027Y116195D01*
X101728Y115749D01*
X101624Y115222D01*
Y107000D01*
X101728Y106473D01*
X102027Y106027D01*
X102473Y105728D01*
X103000Y105624D01*
X103527Y105728D01*
X103973Y106027D01*
X104272Y106473D01*
X104376Y107000D01*
Y115222D01*
X104272Y115749D01*
X103973Y116195D01*
X103527Y116493D01*
X103000Y116598D01*
D02*
G37*
G36*
X103000Y90550D02*
X95949D01*
X95422Y90445D01*
X94975Y90146D01*
X94677Y89700D01*
X94572Y89173D01*
X94677Y88647D01*
X94975Y88200D01*
X95422Y87902D01*
X95949Y87797D01*
X103000D01*
X103527Y87902D01*
X103973Y88200D01*
X104272Y88647D01*
X104376Y89173D01*
X104272Y89700D01*
X103973Y90146D01*
X103527Y90445D01*
X103000Y90550D01*
D02*
G37*
G36*
X116000Y86876D02*
X110000D01*
X109473Y86772D01*
X109027Y86473D01*
X109027Y86473D01*
X107314Y84760D01*
X107015Y84313D01*
X106910Y83787D01*
Y81500D01*
X107015Y80973D01*
X107314Y80527D01*
X107760Y80228D01*
X108287Y80124D01*
X108814Y80228D01*
X109260Y80527D01*
X109558Y80973D01*
X109663Y81500D01*
Y83217D01*
X110570Y84124D01*
X116000D01*
X116527Y84228D01*
X116973Y84527D01*
X117272Y84973D01*
X117376Y85500D01*
X117272Y86027D01*
X116973Y86473D01*
X116527Y86772D01*
X116000Y86876D01*
D02*
G37*
G36*
X64000Y90376D02*
X63473Y90272D01*
X63027Y89973D01*
X62728Y89527D01*
X62624Y89000D01*
Y84760D01*
X60411D01*
Y79376D01*
X55443D01*
Y81651D01*
X50666D01*
Y82500D01*
X47149D01*
Y73500D01*
X48500D01*
X48500Y70921D01*
X46500Y70921D01*
X46500Y70421D01*
Y60649D01*
X38500D01*
D01*
X38269D01*
X38149Y60769D01*
X38149Y70000D01*
X37959Y70459D01*
X37500Y70649D01*
X26500Y70649D01*
X26500D01*
X26041Y70459D01*
X25850Y70000D01*
X25851Y66167D01*
X26041Y65707D01*
X26500Y65517D01*
X26538D01*
Y61983D01*
Y58649D01*
X26500D01*
X26041Y58459D01*
X25850Y58000D01*
Y54021D01*
X25861Y53996D01*
X25853Y53971D01*
X25890Y53486D01*
X25993Y53286D01*
X26079Y53078D01*
X26103Y53067D01*
X26116Y53043D01*
X26330Y52974D01*
X26538Y52888D01*
X28386D01*
X28498Y52721D01*
X28579Y52388D01*
X28527Y52336D01*
X28228Y51889D01*
X28124Y51362D01*
X28228Y50835D01*
X28527Y50389D01*
X28973Y50090D01*
X29500Y49986D01*
X30027Y50090D01*
X30076Y50124D01*
X31079D01*
X31566Y50090D01*
Y48088D01*
X31190Y47758D01*
X31073Y47773D01*
X27927D01*
X27205Y47678D01*
X26533Y47400D01*
X25955Y46957D01*
X25512Y46379D01*
X25233Y45706D01*
X25138Y44984D01*
X25233Y44262D01*
X25512Y43590D01*
X25955Y43012D01*
X26533Y42569D01*
X27205Y42290D01*
X27927Y42195D01*
X31073D01*
X31794Y42290D01*
X32467Y42569D01*
X33045Y43012D01*
X33488Y43590D01*
X33767Y44262D01*
X33862Y44984D01*
X33767Y45706D01*
X33653Y45982D01*
X33987Y46482D01*
X36473Y46482D01*
X36473Y46482D01*
X36813Y46541D01*
X36956Y46482D01*
X37074Y46382D01*
X37176Y46390D01*
X37272Y46351D01*
X46500Y46350D01*
X46959Y46541D01*
X47149Y47000D01*
Y48144D01*
X47503Y48497D01*
X49351Y48496D01*
Y47500D01*
X49541Y47041D01*
X50041Y46541D01*
X50500Y46351D01*
X59000D01*
X59459Y46541D01*
X59649Y47000D01*
Y58459D01*
X68851D01*
Y29000D01*
X69041Y28541D01*
X69500Y28351D01*
X82500D01*
X82959Y28541D01*
X85459Y31041D01*
X85649Y31500D01*
Y48802D01*
X86750D01*
Y58851D01*
X97500D01*
X97959Y59041D01*
X99459Y60541D01*
X99649Y61000D01*
Y70500D01*
X99647Y70505D01*
X99925Y70921D01*
X103500D01*
X103500Y84579D01*
X103500Y84973D01*
X103527Y85000D01*
X103463Y85064D01*
X103038Y85064D01*
X89605D01*
X89541Y85000D01*
X89502Y70649D01*
X89500D01*
X89041Y70459D01*
X89041Y70459D01*
X88713Y70131D01*
X88713Y70131D01*
X88713Y70131D01*
X88541Y69959D01*
X88350Y69500D01*
X88351Y65649D01*
X75500D01*
X75041Y65459D01*
X74753Y65172D01*
X74172Y65217D01*
X74149Y65250D01*
X74149Y69987D01*
X74172D01*
Y84197D01*
X74172Y84370D01*
X73940Y84601D01*
X73767Y84601D01*
X67000Y84601D01*
X67000Y84601D01*
X66781Y84760D01*
X66566Y84760D01*
X65680D01*
X65376Y85064D01*
Y89000D01*
X65272Y89527D01*
X64973Y89973D01*
X64527Y90272D01*
X64000Y90376D01*
D02*
G37*
G36*
X31073Y81790D02*
X27927D01*
X27205Y81695D01*
X26533Y81416D01*
X25955Y80973D01*
X25512Y80395D01*
X25233Y79722D01*
X25138Y79000D01*
X25233Y78278D01*
X25512Y77606D01*
X25955Y77028D01*
X26533Y76585D01*
X27205Y76306D01*
X27927Y76211D01*
X31073D01*
X31794Y76306D01*
X32467Y76585D01*
X33045Y77028D01*
X33488Y77606D01*
X33767Y78278D01*
X33862Y79000D01*
X33767Y79722D01*
X33488Y80395D01*
X33045Y80973D01*
X32467Y81416D01*
X31794Y81695D01*
X31073Y81790D01*
D02*
G37*
G36*
X16112D02*
X12967D01*
X12245Y81695D01*
X11573Y81416D01*
X10995Y80973D01*
X10552Y80395D01*
X10273Y79722D01*
X10178Y79000D01*
X10273Y78278D01*
X10552Y77606D01*
X10995Y77028D01*
X11573Y76585D01*
X12245Y76306D01*
X12967Y76211D01*
X16112D01*
X16834Y76306D01*
X17507Y76585D01*
X18085Y77028D01*
X18528Y77606D01*
X18807Y78278D01*
X18902Y79000D01*
X18807Y79722D01*
X18528Y80395D01*
X18085Y80973D01*
X17507Y81416D01*
X16834Y81695D01*
X16112Y81790D01*
D02*
G37*
G36*
X197000Y67500D02*
X187500D01*
Y67000D01*
Y66816D01*
X182500D01*
Y67500D01*
X182500Y67500D01*
X173000D01*
Y67000D01*
Y66623D01*
X172500Y66399D01*
X172381Y66350D01*
X172251D01*
X172160Y66259D01*
X172041Y66209D01*
X171541Y65709D01*
X171351Y65250D01*
Y43000D01*
X171541Y42541D01*
X172000Y42351D01*
Y41000D01*
X172126Y40874D01*
X173851D01*
Y32000D01*
X174041Y31541D01*
X174500Y31351D01*
X190000D01*
X190459Y31541D01*
X192337Y33419D01*
X192527Y33878D01*
Y41500D01*
X192337Y41959D01*
X191878Y42149D01*
X187221D01*
X187004Y42649D01*
X187149Y43000D01*
Y53851D01*
X200500D01*
X200959Y54041D01*
X203459Y56541D01*
X203649Y57000D01*
Y66167D01*
X203459Y66626D01*
X203000Y66816D01*
X197000D01*
Y67500D01*
X197000Y67500D01*
D02*
G37*
G36*
X164563Y66233D02*
X163900Y66101D01*
X163337Y65726D01*
X162962Y65163D01*
X162830Y64500D01*
X162962Y63837D01*
X163337Y63274D01*
X163900Y62899D01*
X164563Y62767D01*
X165226Y62899D01*
X165789Y63274D01*
X166164Y63837D01*
X166296Y64500D01*
X166164Y65163D01*
X165789Y65726D01*
X165226Y66101D01*
X164563Y66233D01*
D02*
G37*
G36*
X157045Y74376D02*
X156518Y74272D01*
X156072Y73973D01*
X155773Y73527D01*
X155669Y73000D01*
Y63500D01*
X155773Y62973D01*
X156072Y62527D01*
X156518Y62228D01*
X157045Y62124D01*
X157572Y62228D01*
X158018Y62527D01*
X158317Y62973D01*
X158422Y63500D01*
Y73000D01*
X158317Y73527D01*
X158018Y73973D01*
X157572Y74272D01*
X157045Y74376D01*
D02*
G37*
G36*
X144045D02*
X143518Y74272D01*
X143072Y73973D01*
X142773Y73527D01*
X142669Y73000D01*
Y63500D01*
X142773Y62973D01*
X143072Y62527D01*
X143518Y62228D01*
X144045Y62124D01*
X144572Y62228D01*
X145018Y62527D01*
X145317Y62973D01*
X145422Y63500D01*
Y73000D01*
X145317Y73527D01*
X145018Y73973D01*
X144572Y74272D01*
X144045Y74376D01*
D02*
G37*
G36*
X16112Y47773D02*
X12967D01*
X12245Y47678D01*
X11573Y47400D01*
X10995Y46957D01*
X10552Y46379D01*
X10273Y45706D01*
X10178Y44984D01*
X10273Y44262D01*
X10552Y43590D01*
X10995Y43012D01*
X11573Y42569D01*
X12245Y42290D01*
X12967Y42195D01*
X16112D01*
X16834Y42290D01*
X17507Y42569D01*
X18085Y43012D01*
X18528Y43590D01*
X18807Y44262D01*
X18902Y44984D01*
X18807Y45706D01*
X18528Y46379D01*
X18085Y46957D01*
X17507Y47400D01*
X16834Y47678D01*
X16112Y47773D01*
D02*
G37*
G36*
X167056Y31177D02*
X166393Y31045D01*
X165831Y30669D01*
X165455Y30107D01*
X165323Y29444D01*
X165455Y28780D01*
X165680Y28444D01*
Y26050D01*
X163701D01*
Y19730D01*
Y17780D01*
Y11460D01*
X166139D01*
Y8931D01*
X165831Y8726D01*
X165455Y8163D01*
X165323Y7500D01*
X165455Y6837D01*
X165831Y6274D01*
X166393Y5899D01*
X167056Y5767D01*
X167719Y5899D01*
X168282Y6274D01*
X168658Y6837D01*
X168790Y7500D01*
X168658Y8163D01*
X168282Y8726D01*
X167974Y8931D01*
Y11460D01*
X170411D01*
Y17780D01*
Y21514D01*
X173806D01*
Y19840D01*
X173851Y18000D01*
X180516D01*
Y19840D01*
Y26160D01*
X173806D01*
Y24266D01*
X170411D01*
Y26050D01*
X168433D01*
Y28444D01*
X168658Y28780D01*
X168790Y29444D01*
X168658Y30107D01*
X168282Y30669D01*
X167719Y31045D01*
X167056Y31177D01*
D02*
G37*
G36*
X133500Y20679D02*
X132418Y20537D01*
X131411Y20119D01*
X130545Y19455D01*
X129881Y18589D01*
X129463Y17582D01*
X129321Y16500D01*
X129463Y15418D01*
X129881Y14411D01*
X130545Y13545D01*
X131411Y12881D01*
X132418Y12463D01*
X133500Y12321D01*
X134582Y12463D01*
X135590Y12881D01*
X136455Y13545D01*
X137119Y14411D01*
X137537Y15418D01*
X137679Y16500D01*
X137537Y17582D01*
X137119Y18589D01*
X136455Y19455D01*
X135590Y20119D01*
X134582Y20537D01*
X133500Y20679D01*
D02*
G37*
G36*
X121689D02*
X120607Y20537D01*
X119599Y20119D01*
X118734Y19455D01*
X118070Y18589D01*
X117652Y17582D01*
X117510Y16500D01*
X117652Y15418D01*
X118070Y14411D01*
X118734Y13545D01*
X119599Y12881D01*
X120607Y12463D01*
X121689Y12321D01*
X122771Y12463D01*
X123778Y12881D01*
X124644Y13545D01*
X125308Y14411D01*
X125726Y15418D01*
X125868Y16500D01*
X125726Y17582D01*
X125308Y18589D01*
X124644Y19455D01*
X123778Y20119D01*
X122771Y20537D01*
X121689Y20679D01*
D02*
G37*
G36*
X58500Y42607D02*
X57837Y42475D01*
X57274Y42100D01*
X56899Y41537D01*
X56767Y40874D01*
X56899Y40211D01*
X57124Y39874D01*
Y37442D01*
X54849D01*
Y32305D01*
Y29568D01*
Y24431D01*
X57124D01*
Y19804D01*
X55489D01*
Y13484D01*
Y9750D01*
X50666D01*
Y13484D01*
Y19804D01*
X48787D01*
Y24431D01*
X51062D01*
Y29568D01*
Y32305D01*
Y37442D01*
X48787D01*
Y39874D01*
X49012Y40211D01*
X49144Y40874D01*
X49012Y41537D01*
X48636Y42100D01*
X48074Y42475D01*
X47411Y42607D01*
X46747Y42475D01*
X46185Y42100D01*
X45809Y41537D01*
X45677Y40874D01*
X45809Y40211D01*
X46034Y39874D01*
Y37442D01*
X43759D01*
Y32305D01*
Y29568D01*
Y24431D01*
X46034D01*
Y19804D01*
X43956D01*
Y13484D01*
Y9750D01*
X37500D01*
X37163Y9975D01*
X36500Y10107D01*
X35837Y9975D01*
X35274Y9600D01*
X34899Y9037D01*
X34767Y8374D01*
X34899Y7711D01*
X35274Y7148D01*
X35837Y6773D01*
X36500Y6641D01*
X37163Y6773D01*
X37500Y6998D01*
X43956D01*
Y5214D01*
X50666D01*
Y6998D01*
X55489D01*
Y5214D01*
X62199D01*
Y11534D01*
Y13484D01*
Y19804D01*
X59876D01*
Y24431D01*
X62151D01*
Y29568D01*
Y32305D01*
Y37442D01*
X59876D01*
Y39874D01*
X60101Y40211D01*
X60233Y40874D01*
X60101Y41537D01*
X59726Y42100D01*
X59163Y42475D01*
X58500Y42607D01*
D02*
G37*
G36*
X177161Y16106D02*
X176635Y16002D01*
X176188Y15703D01*
X175890Y15257D01*
X175785Y14730D01*
Y7500D01*
X175890Y6973D01*
X176188Y6527D01*
X176635Y6228D01*
X177161Y6124D01*
X177688Y6228D01*
X178135Y6527D01*
X178433Y6973D01*
X178538Y7500D01*
Y14730D01*
X178433Y15257D01*
X178135Y15703D01*
X177688Y16002D01*
X177161Y16106D01*
D02*
G37*
G36*
X71399Y19939D02*
X63900D01*
Y4959D01*
X71399D01*
Y19939D01*
D02*
G37*
%LPD*%
G36*
X121447Y155880D02*
X110603Y145037D01*
X110250Y144683D01*
X109806Y144548D01*
X108649D01*
Y159159D01*
X121447D01*
Y155880D01*
D02*
G37*
G36*
X108000Y128000D02*
Y125598D01*
X103000D01*
X102473Y125494D01*
X102027Y125195D01*
X101728Y124749D01*
X101624Y124222D01*
X101728Y123695D01*
X102027Y123249D01*
X102473Y122950D01*
X103000Y122845D01*
X107500D01*
X107978Y122345D01*
X107923Y121165D01*
X98500D01*
Y159159D01*
X108000D01*
Y128000D01*
D02*
G37*
G36*
X181582Y118676D02*
X181652Y118325D01*
X181851Y118027D01*
X182851Y117027D01*
X183149Y116828D01*
X183207Y116816D01*
X183500Y116758D01*
X185227D01*
Y115107D01*
Y112370D01*
Y110719D01*
X183500D01*
X183149Y110650D01*
X182851Y110451D01*
X181980Y109579D01*
X181781Y109282D01*
X181711Y108930D01*
Y106276D01*
X178824D01*
Y109324D01*
Y117160D01*
Y120582D01*
X181582D01*
Y118676D01*
D02*
G37*
G36*
X168176Y117160D02*
Y109698D01*
Y106276D01*
X164706D01*
X164499Y106776D01*
X165649Y107925D01*
X165848Y108223D01*
X165918Y108574D01*
Y119971D01*
X166529Y120582D01*
X168176D01*
Y117160D01*
D02*
G37*
G36*
X136500Y99563D02*
X140563Y95500D01*
X144000D01*
Y89848D01*
X143703Y89649D01*
X143351Y89297D01*
X143152Y89000D01*
X143082Y88648D01*
Y88000D01*
X135500D01*
Y99669D01*
X136500D01*
Y99563D01*
D02*
G37*
G36*
X121500Y98339D02*
Y94500D01*
X127000D01*
Y95500D01*
X131000Y99500D01*
X132500Y98000D01*
X134000D01*
Y54952D01*
X134083Y54869D01*
X133876Y54369D01*
X120805D01*
X120567Y54770D01*
Y63027D01*
X120370D01*
Y66000D01*
X120934D01*
X121191Y65743D01*
Y74000D01*
X120370D01*
Y87928D01*
X120870Y88059D01*
X120929Y88000D01*
Y91500D01*
X113000D01*
Y100656D01*
X119183D01*
X121500Y98339D01*
D02*
G37*
G36*
X119000Y74000D02*
X118027D01*
X118000Y73973D01*
X117933Y66000D01*
X119000D01*
Y63027D01*
X117403D01*
X117376Y63000D01*
X117310Y55027D01*
X119000D01*
Y52750D01*
X111378D01*
X109500Y50872D01*
Y39500D01*
X113879D01*
X113905Y39497D01*
X113930Y39500D01*
X116000D01*
X116797Y40000D01*
X126069Y48245D01*
X130500Y48245D01*
X130500Y40000D01*
X125534D01*
X120370Y34835D01*
Y30250D01*
X105750D01*
X105500Y30500D01*
Y76000D01*
X119000D01*
Y74000D01*
D02*
G37*
G36*
X163000Y31236D02*
X151000Y19236D01*
X151000Y8374D01*
X141000D01*
Y24000D01*
X145419D01*
X152655Y31236D01*
Y32500D01*
X146586D01*
X143586Y29500D01*
X141085D01*
X141043Y29601D01*
X141043Y29601D01*
X128399D01*
X128334Y29666D01*
Y38000D01*
X137500D01*
X139250Y39750D01*
X163000D01*
Y31236D01*
D02*
G37*
G36*
X99000Y70500D02*
Y61000D01*
X97500Y59500D01*
X85000D01*
Y58980D01*
X83000D01*
Y48802D01*
X85000D01*
Y31500D01*
X82500Y29000D01*
X69500D01*
Y58459D01*
Y59000D01*
X69500Y59000D01*
X69500D01*
Y59000D01*
X75500Y65000D01*
X89000D01*
X89000Y69500D01*
X89172Y69672D01*
X89500Y70000D01*
X89500Y70000D01*
X89500Y70000D01*
X96632D01*
X97132Y70500D01*
X99000Y70500D01*
D02*
G37*
G36*
X62000Y70000D02*
X67000D01*
Y69987D01*
X73500D01*
X73500Y65250D01*
X68071D01*
X62000Y61000D01*
X51500D01*
Y59500D01*
X58000D01*
X59000Y58500D01*
Y47000D01*
X50500D01*
X50000Y47500D01*
Y60609D01*
X50041Y60649D01*
X50041D01*
X50041Y70921D01*
X50000D01*
Y72000D01*
X60000D01*
X62000Y70000D01*
D02*
G37*
G36*
X37500Y60500D02*
X38000Y60000D01*
X46500D01*
Y58459D01*
X46500D01*
Y48498D01*
Y47000D01*
X37272Y47000D01*
X36631Y48245D01*
X36631Y53500D01*
X32462D01*
Y53537D01*
X26538D01*
X26500Y54021D01*
Y58000D01*
X33000D01*
Y66167D01*
X26500D01*
X26500Y70000D01*
X37500Y70000D01*
X37500Y60500D01*
D02*
G37*
G36*
X203000Y57000D02*
X200500Y54500D01*
X186500D01*
Y43000D01*
X172000D01*
Y65250D01*
X172500Y65750D01*
X173000Y65543D01*
Y63961D01*
X182500D01*
Y66167D01*
X187500D01*
Y63961D01*
X197000D01*
Y66167D01*
X203000D01*
Y57000D01*
D02*
G37*
G36*
X191878Y33878D02*
X190000Y32000D01*
X174500D01*
Y40874D01*
X175785D01*
Y41500D01*
X191878D01*
Y33878D01*
D02*
G37*
D10*
X0Y0D02*
Y177165D01*
Y0D02*
X216535D01*
Y177165D01*
X0D02*
X216535D01*
D15*
X124250Y147500D02*
X124500D01*
X127000Y150000D01*
X135352D01*
X141342Y140416D02*
Y141658D01*
X137676Y136749D02*
X141342Y140416D01*
X140000Y143000D02*
X141342Y141658D01*
X136500Y143000D02*
X140000D01*
X150938Y104000D02*
X152300D01*
X150894Y106842D02*
X158500D01*
X147419Y107518D02*
X150938Y104000D01*
X148825Y108910D02*
X150894Y106842D01*
X148811Y108910D02*
X148825D01*
X147419Y107518D02*
Y107519D01*
X110439Y127000D02*
X111229D01*
X115399Y122830D01*
X115405D01*
X135352Y144149D02*
X136500Y143000D01*
X135352Y144149D02*
Y150000D01*
D20*
X153426Y93000D02*
D03*
X147125D02*
D03*
D21*
X103000Y124222D02*
D03*
Y115222D02*
D03*
X116000Y94500D02*
D03*
Y85500D02*
D03*
X144045Y82000D02*
D03*
Y73000D02*
D03*
X157045Y82000D02*
D03*
Y73000D02*
D03*
X177872Y61500D02*
D03*
Y70500D02*
D03*
X191878Y61500D02*
D03*
Y70500D02*
D03*
D22*
X129324Y97775D02*
D03*
X127932Y99167D02*
D03*
X126540Y100559D02*
D03*
X125148Y101951D02*
D03*
X123756Y103343D02*
D03*
X122364Y104735D02*
D03*
X120972Y106127D02*
D03*
X119580Y107519D02*
D03*
X118189Y108911D02*
D03*
X116796Y110302D02*
D03*
X115405Y111695D02*
D03*
X114013Y113086D02*
D03*
X137676Y136749D02*
D03*
X139068Y135357D02*
D03*
X140460Y133965D02*
D03*
X141852Y132574D02*
D03*
X143244Y131181D02*
D03*
X144636Y129790D02*
D03*
X146028Y128397D02*
D03*
X147420Y127006D02*
D03*
X148811Y125613D02*
D03*
X150204Y124222D02*
D03*
X151595Y122829D02*
D03*
X152988Y121438D02*
D03*
D23*
X114013Y121438D02*
D03*
X115405Y122830D02*
D03*
X116797Y124222D02*
D03*
X118189Y125614D02*
D03*
X119581Y127006D02*
D03*
X120972Y128398D02*
D03*
X122365Y129790D02*
D03*
X123757Y131182D02*
D03*
X125149Y132574D02*
D03*
X126540Y133966D02*
D03*
X127933Y135357D02*
D03*
X129324Y136750D02*
D03*
X152987Y113086D02*
D03*
X151595Y111694D02*
D03*
X150203Y110302D02*
D03*
X148811Y108910D02*
D03*
X147419Y107518D02*
D03*
X146028Y106126D02*
D03*
X144635Y104735D02*
D03*
X143244Y103342D02*
D03*
X141851Y101951D02*
D03*
X140460Y100558D02*
D03*
X139067Y99167D02*
D03*
X137676Y97775D02*
D03*
D24*
X103000Y89173D02*
D03*
Y97047D02*
D03*
X47411Y34874D02*
D03*
Y27000D02*
D03*
X58500Y34874D02*
D03*
Y27000D02*
D03*
X180878Y37626D02*
D03*
Y45500D02*
D03*
X188878Y117676D02*
D03*
Y109802D02*
D03*
X155500Y145000D02*
D03*
Y137126D02*
D03*
D25*
X123374Y70000D02*
D03*
X115500D02*
D03*
X123374Y59000D02*
D03*
X115500D02*
D03*
X45000Y78000D02*
D03*
X52874D02*
D03*
D26*
X80500Y53869D02*
D03*
X89500D02*
D03*
X52500Y66000D02*
D03*
X43500D02*
D03*
X173500Y91000D02*
D03*
X182500D02*
D03*
X173500Y136500D02*
D03*
X182500D02*
D03*
X135352Y150000D02*
D03*
X144351D02*
D03*
D27*
X93811Y68000D02*
D03*
Y73000D02*
D03*
Y78000D02*
D03*
Y83000D02*
D03*
X70189Y68000D02*
D03*
Y73000D02*
D03*
Y78000D02*
D03*
Y83000D02*
D03*
D28*
X82000Y75500D02*
D03*
D29*
X54098Y53500D02*
D03*
X41500D02*
D03*
D30*
X29500Y72622D02*
D03*
Y51362D02*
D03*
D31*
Y67898D02*
D03*
Y63961D02*
D03*
Y60024D02*
D03*
Y56087D02*
D03*
D32*
X58844Y8374D02*
D03*
Y16644D02*
D03*
X47311Y8374D02*
D03*
Y16644D02*
D03*
X177161Y23000D02*
D03*
Y14730D02*
D03*
X167056Y22890D02*
D03*
Y14620D02*
D03*
D33*
X79854Y39614D02*
D03*
X89854D02*
D03*
D34*
X102059Y12449D02*
D03*
X67650Y12449D02*
D03*
D35*
X132074Y33480D02*
D03*
X128334Y43320D02*
D03*
X135814D02*
D03*
D36*
X173500Y121500D02*
D03*
Y105358D02*
D03*
D64*
X47411Y34874D02*
Y40874D01*
X47411Y40874D02*
X47411Y40874D01*
X103000Y124222D02*
X111229D01*
X114013Y121438D01*
X123756Y96420D02*
X125145D01*
X127892Y99167D01*
X127932D01*
X108287Y81500D02*
Y83787D01*
X110000Y85500D01*
X116000D01*
X177051Y22890D02*
X177161Y23000D01*
X167056Y22890D02*
X177051D01*
X167056D02*
Y29444D01*
X177161Y7500D02*
Y14730D01*
X182129Y137000D02*
X182629Y136500D01*
X181878Y136749D02*
X182129Y137000D01*
X95949Y89173D02*
X103000D01*
X93811Y83000D02*
X101365D01*
X36500Y8374D02*
X47311D01*
X58844D01*
X64000Y73000D02*
X70189D01*
X33500Y51500D02*
X34631Y50369D01*
X29638Y51500D02*
X33500D01*
X29500Y51362D02*
X29638Y51500D01*
X52874Y78000D02*
X70189D01*
X58500Y34874D02*
Y40874D01*
X93811Y73000D02*
X101365D01*
X93811Y78000D02*
X101365D01*
X64000Y84494D02*
X65329Y83165D01*
X70024D01*
X70189Y83000D01*
X64000Y84494D02*
Y89000D01*
X58500Y16988D02*
X58844Y16644D01*
X58500Y16988D02*
Y27000D01*
X47311Y16644D02*
X47411Y16744D01*
Y27000D01*
X144045Y63500D02*
Y73000D01*
X157045Y63500D02*
Y73000D01*
X103000Y107000D02*
Y115222D01*
X182629Y136500D02*
X193000D01*
D65*
X141500Y110500D02*
X145873Y106127D01*
X146028D01*
X149370Y100000D02*
X156426D01*
X147886Y98700D02*
X157700D01*
X153426Y93000D02*
Y96074D01*
X152000Y97500D02*
X153426Y96074D01*
X146302Y97500D02*
X152000D01*
X146028Y106093D02*
Y106127D01*
X156426Y100000D02*
X165000Y108574D01*
Y120352D01*
X144636Y104735D02*
X149370Y100000D01*
X157700Y98700D02*
X164358Y105358D01*
X143244Y103343D02*
X147886Y98700D01*
X141852Y101950D02*
X146302Y97500D01*
X144869Y96149D02*
X147126D01*
X140460Y100558D02*
X144869Y96149D01*
X112000Y129019D02*
X116797Y124222D01*
X112000Y129019D02*
Y131182D01*
X116797Y124222D02*
Y124222D01*
X183500Y109802D02*
X188878D01*
X182629Y108930D02*
X183500Y109802D01*
X182629Y105710D02*
Y108930D01*
X182277Y105358D02*
X182629Y105710D01*
X173500Y105358D02*
X182277D01*
X183500Y117676D02*
X188878D01*
X182500Y118676D02*
X183500Y117676D01*
X182500Y118676D02*
Y121149D01*
X182149Y121500D02*
X182500Y121149D01*
X173500Y121500D02*
X182149D01*
X146950Y140500D02*
X149000D01*
X140460Y134010D02*
X146950Y140500D01*
X140460Y133965D02*
Y134010D01*
X141852Y132574D02*
X146278Y137000D01*
X143288Y131182D02*
X149233Y137126D01*
X155500D01*
X143244Y131182D02*
X143288D01*
X141852Y132574D02*
X141852D01*
X140460Y133965D02*
X140465D01*
X198000Y115000D02*
X205500D01*
Y125000D02*
Y133500D01*
X110250Y108000D02*
Y109324D01*
X114012Y113086D01*
X114013D01*
X12000Y112000D02*
X21500D01*
X12000Y122000D02*
X21500D01*
X104315Y101574D02*
X121987D01*
X103000Y100258D02*
X104315Y101574D01*
X121987D02*
X123756Y103343D01*
X103000Y97047D02*
Y100258D01*
X112479Y104000D02*
X116062D01*
X119580Y107519D01*
X119581D01*
X167056Y7500D02*
Y14620D01*
X112500Y136870D02*
Y142919D01*
Y136870D02*
X120972Y128398D01*
X112500Y142919D02*
X128000Y158419D01*
Y167784D01*
X123284Y172500D02*
X128000Y167784D01*
X113000Y172500D02*
X123284D01*
X112500Y172000D02*
X113000Y172500D01*
X112500Y164500D02*
Y172000D01*
X111000Y135587D02*
X119581Y127006D01*
Y127006D02*
Y127006D01*
X111000Y135587D02*
Y144136D01*
X122364Y155500D01*
Y164364D01*
X122500Y164500D01*
X157045Y82000D02*
Y88648D01*
X156693Y89000D02*
X157045Y88648D01*
X153777Y89000D02*
X156693D01*
X153426Y89351D02*
X153777Y89000D01*
X153426Y89351D02*
Y93000D01*
X144000Y82045D02*
Y88648D01*
X144351Y89000D01*
X146586D01*
X144000Y82045D02*
X144045Y82000D01*
X146586Y89000D02*
X147126Y89539D01*
Y93000D01*
X141852Y101950D02*
Y101951D01*
X147126Y93000D02*
Y96149D01*
X140460Y100558D02*
Y100559D01*
X165000Y120352D02*
X166148Y121500D01*
X173500D01*
X164358Y105358D02*
X173500D01*
X173500Y91000D02*
X173500Y91000D01*
Y105358D01*
X173500Y121500D02*
X173500Y121500D01*
X173500Y121500D02*
Y136500D01*
D66*
X57000Y146000D02*
D03*
Y116500D02*
D03*
D67*
X205500Y125000D02*
D03*
Y115000D02*
D03*
Y105000D02*
D03*
X102500Y164500D02*
D03*
X112500D02*
D03*
X122500D02*
D03*
D68*
X205500Y95000D02*
D03*
D69*
X196815Y19685D02*
D03*
X19685D02*
D03*
Y157315D02*
D03*
X196815D02*
D03*
D70*
X12000Y112000D02*
D03*
D71*
Y122000D02*
D03*
Y132000D02*
D03*
X145311Y16500D02*
D03*
X133500D02*
D03*
X121689D02*
D03*
D72*
X156335Y16500D02*
D03*
X110665Y16500D02*
D03*
D73*
X92500Y164500D02*
D03*
D74*
X14540Y44984D02*
D03*
Y79000D02*
D03*
X29500Y44984D02*
D03*
Y79000D02*
D03*
D75*
X113905Y42484D02*
D03*
Y36574D02*
D03*
X151174Y43000D02*
D03*
Y37090D02*
D03*
D76*
X124250Y147500D02*
D03*
X164563Y64500D02*
D03*
X47411Y40874D02*
D03*
X86000Y71000D02*
D03*
X82250D02*
D03*
X78500D02*
D03*
X86000Y75250D02*
D03*
X82250D02*
D03*
X78500D02*
D03*
X86000Y79500D02*
D03*
X82250D02*
D03*
X78500D02*
D03*
X141500Y110500D02*
D03*
X152300Y104000D02*
D03*
X162500Y163500D02*
D03*
Y171000D02*
D03*
X141841Y159159D02*
D03*
X158500Y106842D02*
D03*
X198500Y60500D02*
D03*
Y56500D02*
D03*
Y64500D02*
D03*
X142000Y90000D02*
D03*
X139000D02*
D03*
X142000Y93000D02*
D03*
X139000D02*
D03*
X165000Y91500D02*
D03*
Y94500D02*
D03*
Y97500D02*
D03*
X110439Y127000D02*
D03*
X112000Y131182D02*
D03*
X108287Y81500D02*
D03*
X194000Y79000D02*
D03*
X188083D02*
D03*
X182167D02*
D03*
X176250D02*
D03*
X188500Y35425D02*
D03*
Y39114D02*
D03*
X167056Y29444D02*
D03*
X123874Y42000D02*
D03*
X177161Y7500D02*
D03*
X141193Y42820D02*
D03*
X146278Y137000D02*
D03*
X149000Y140500D02*
D03*
X198000Y115000D02*
D03*
X205500Y133500D02*
D03*
X110250Y108000D02*
D03*
X21500Y112000D02*
D03*
Y122000D02*
D03*
X95949Y89173D02*
D03*
X141193Y46781D02*
D03*
X73000Y49000D02*
D03*
Y39000D02*
D03*
Y42333D02*
D03*
Y45667D02*
D03*
X60000Y64500D02*
D03*
X63000D02*
D03*
X101365Y83000D02*
D03*
X36500Y8374D02*
D03*
X64000Y73000D02*
D03*
X34631Y50369D02*
D03*
X39500Y83000D02*
D03*
Y80000D02*
D03*
Y73789D02*
D03*
Y77028D02*
D03*
X35500Y73789D02*
D03*
Y77000D02*
D03*
X112479Y104000D02*
D03*
X167056Y7500D02*
D03*
X130000Y60500D02*
D03*
Y66167D02*
D03*
Y71833D02*
D03*
Y77500D02*
D03*
X123374Y77500D02*
D03*
X130000Y88648D02*
D03*
X123500D02*
D03*
X130000Y92000D02*
D03*
X123500D02*
D03*
X58500Y40874D02*
D03*
X101365Y73000D02*
D03*
Y78000D02*
D03*
X98500Y49500D02*
D03*
Y44167D02*
D03*
Y38833D02*
D03*
Y54833D02*
D03*
X64000Y89000D02*
D03*
X83500Y160703D02*
D03*
Y167248D02*
D03*
X101000Y133000D02*
D03*
X104250D02*
D03*
Y156000D02*
D03*
X101000D02*
D03*
X157500Y150500D02*
D03*
X152655D02*
D03*
X157500Y153500D02*
D03*
X152655D02*
D03*
X157045Y63500D02*
D03*
X144045D02*
D03*
X103000Y107000D02*
D03*
X193000Y136500D02*
D03*
M02*
