G04*
G04 #@! TF.GenerationSoftware,Altium Limited,Altium Designer,19.0.10 (269)*
G04*
G04 Layer_Color=8388736*
%FSLAX25Y25*%
%MOIN*%
G70*
G01*
G75*
%ADD10C,0.01000*%
%ADD37R,0.03950X0.04737*%
%ADD38R,0.05800X0.06800*%
G04:AMPARAMS|DCode=39|XSize=67.06mil|YSize=19.81mil|CornerRadius=0mil|HoleSize=0mil|Usage=FLASHONLY|Rotation=225.000|XOffset=0mil|YOffset=0mil|HoleType=Round|Shape=Round|*
%AMOVALD39*
21,1,0.04724,0.01981,0.00000,0.00000,225.0*
1,1,0.01981,0.01670,0.01670*
1,1,0.01981,-0.01670,-0.01670*
%
%ADD39OVALD39*%

G04:AMPARAMS|DCode=40|XSize=67.06mil|YSize=19.81mil|CornerRadius=0mil|HoleSize=0mil|Usage=FLASHONLY|Rotation=315.000|XOffset=0mil|YOffset=0mil|HoleType=Round|Shape=Round|*
%AMOVALD40*
21,1,0.04724,0.01981,0.00000,0.00000,315.0*
1,1,0.01981,-0.01670,0.01670*
1,1,0.01981,0.01670,-0.01670*
%
%ADD40OVALD40*%

%ADD41R,0.06902X0.04737*%
%ADD42R,0.04737X0.06902*%
%ADD43R,0.06800X0.05800*%
%ADD44O,0.07091X0.03162*%
%ADD45R,0.12611X0.14579*%
%ADD46R,0.05524X0.08280*%
%ADD47R,0.05524X0.03950*%
%ADD48R,0.05524X0.03556*%
%ADD49R,0.06310X0.05920*%
%ADD50R,0.05524X0.15761*%
%ADD51R,0.07099X0.14580*%
%ADD52R,0.03556X0.05721*%
%ADD53R,0.10249X0.08280*%
%ADD54C,0.06706*%
%ADD55C,0.07493*%
%ADD56R,0.07493X0.07493*%
%ADD57C,0.16863*%
%ADD58R,0.07887X0.07000*%
%ADD59C,0.07887*%
%ADD60O,0.06706X0.10639*%
%ADD61R,0.07493X0.07493*%
%ADD62O,0.08276X0.05131*%
%ADD63C,0.05524*%
D10*
X0Y0D02*
Y177165D01*
Y0D02*
X216535D01*
Y177165D01*
X0D02*
X216535D01*
D37*
X153426Y93000D02*
D03*
X147125D02*
D03*
D38*
X103000Y124222D02*
D03*
Y115222D02*
D03*
X116000Y94500D02*
D03*
Y85500D02*
D03*
X144045Y82000D02*
D03*
Y73000D02*
D03*
X157045Y82000D02*
D03*
Y73000D02*
D03*
X177872Y61500D02*
D03*
Y70500D02*
D03*
X191878Y61500D02*
D03*
Y70500D02*
D03*
D39*
X129324Y97775D02*
D03*
X127932Y99167D02*
D03*
X126540Y100559D02*
D03*
X125148Y101951D02*
D03*
X123756Y103343D02*
D03*
X122364Y104735D02*
D03*
X120972Y106127D02*
D03*
X119580Y107519D02*
D03*
X118189Y108911D02*
D03*
X116796Y110302D02*
D03*
X115405Y111695D02*
D03*
X114013Y113086D02*
D03*
X137676Y136749D02*
D03*
X139068Y135357D02*
D03*
X140460Y133965D02*
D03*
X141852Y132574D02*
D03*
X143244Y131181D02*
D03*
X144636Y129790D02*
D03*
X146028Y128397D02*
D03*
X147420Y127006D02*
D03*
X148811Y125613D02*
D03*
X150204Y124222D02*
D03*
X151595Y122829D02*
D03*
X152988Y121438D02*
D03*
D40*
X114013Y121438D02*
D03*
X115405Y122830D02*
D03*
X116797Y124222D02*
D03*
X118189Y125614D02*
D03*
X119581Y127006D02*
D03*
X120972Y128398D02*
D03*
X122365Y129790D02*
D03*
X123757Y131182D02*
D03*
X125149Y132574D02*
D03*
X126540Y133966D02*
D03*
X127933Y135357D02*
D03*
X129324Y136750D02*
D03*
X152987Y113086D02*
D03*
X151595Y111694D02*
D03*
X150203Y110302D02*
D03*
X148811Y108910D02*
D03*
X147419Y107518D02*
D03*
X146028Y106126D02*
D03*
X144635Y104735D02*
D03*
X143244Y103342D02*
D03*
X141851Y101951D02*
D03*
X140460Y100558D02*
D03*
X139067Y99167D02*
D03*
X137676Y97775D02*
D03*
D41*
X103000Y89173D02*
D03*
Y97047D02*
D03*
X47411Y34874D02*
D03*
Y27000D02*
D03*
X58500Y34874D02*
D03*
Y27000D02*
D03*
X180878Y37626D02*
D03*
Y45500D02*
D03*
X188878Y117676D02*
D03*
Y109802D02*
D03*
X155500Y145000D02*
D03*
Y137126D02*
D03*
D42*
X123374Y70000D02*
D03*
X115500D02*
D03*
X123374Y59000D02*
D03*
X115500D02*
D03*
X45000Y78000D02*
D03*
X52874D02*
D03*
D43*
X80500Y53869D02*
D03*
X89500D02*
D03*
X52500Y66000D02*
D03*
X43500D02*
D03*
X173500Y91000D02*
D03*
X182500D02*
D03*
X173500Y136500D02*
D03*
X182500D02*
D03*
X135352Y150000D02*
D03*
X144351D02*
D03*
D44*
X93811Y68000D02*
D03*
Y73000D02*
D03*
Y78000D02*
D03*
Y83000D02*
D03*
X70189Y68000D02*
D03*
Y73000D02*
D03*
Y78000D02*
D03*
Y83000D02*
D03*
D45*
X82000Y75500D02*
D03*
D46*
X54098Y53500D02*
D03*
X41500D02*
D03*
D47*
X29500Y72622D02*
D03*
Y51362D02*
D03*
D48*
Y67898D02*
D03*
Y63961D02*
D03*
Y60024D02*
D03*
Y56087D02*
D03*
D49*
X58844Y8374D02*
D03*
Y16644D02*
D03*
X47311Y8374D02*
D03*
Y16644D02*
D03*
X177161Y23000D02*
D03*
Y14730D02*
D03*
X167056Y22890D02*
D03*
Y14620D02*
D03*
D50*
X79854Y39614D02*
D03*
X89854D02*
D03*
D51*
X102059Y12449D02*
D03*
X67650Y12449D02*
D03*
D52*
X132074Y33480D02*
D03*
X128334Y43320D02*
D03*
X135814D02*
D03*
D53*
X173500Y121500D02*
D03*
Y105358D02*
D03*
D54*
X57000Y146000D02*
D03*
Y116500D02*
D03*
D55*
X205500Y125000D02*
D03*
Y115000D02*
D03*
Y105000D02*
D03*
X102500Y164500D02*
D03*
X112500D02*
D03*
X122500D02*
D03*
D56*
X205500Y95000D02*
D03*
D57*
X196815Y19685D02*
D03*
X19685D02*
D03*
Y157315D02*
D03*
X196815D02*
D03*
D58*
X12000Y112000D02*
D03*
D59*
Y122000D02*
D03*
Y132000D02*
D03*
X145311Y16500D02*
D03*
X133500D02*
D03*
X121689D02*
D03*
D60*
X156335Y16500D02*
D03*
X110665Y16500D02*
D03*
D61*
X92500Y164500D02*
D03*
D62*
X14540Y44984D02*
D03*
Y79000D02*
D03*
X29500Y44984D02*
D03*
Y79000D02*
D03*
D63*
X113905Y42484D02*
D03*
Y36574D02*
D03*
X151174Y43000D02*
D03*
Y37090D02*
D03*
M02*
